<mxfile host="Electron" modified="2023-12-18T19:23:03.204Z" agent="Mozilla/5.0 (X11; Linux x86_64) AppleWebKit/537.36 (KHTML, like Gecko) draw.io/22.1.2 Chrome/114.0.5735.289 Electron/25.9.4 Safari/537.36" etag="EEMx5PX7a1YKFp1bipFS" version="22.1.2" type="device">
  <diagram name="Page-1" id="g94rWqQT458zXKiwPp3C">
    <mxGraphModel dx="2000" dy="1203" grid="1" gridSize="10" guides="1" tooltips="1" connect="1" arrows="1" fold="1" page="1" pageScale="1" pageWidth="2336" pageHeight="1654" background="#001933" math="0" shadow="0">
      <root>
        <mxCell id="0" />
        <mxCell id="1" parent="0" />
        <mxCell id="T2i4QAdsJLNHDOcd7dDv-2" value="" style="rounded=0;whiteSpace=wrap;html=1;fillColor=none;" parent="1" vertex="1">
          <mxGeometry x="204.01" y="105" width="430" height="230" as="geometry" />
        </mxCell>
        <mxCell id="T2i4QAdsJLNHDOcd7dDv-13" value="" style="rounded=0;whiteSpace=wrap;html=1;fillColor=none;" parent="1" vertex="1">
          <mxGeometry x="970.67" y="110" width="450" height="240" as="geometry" />
        </mxCell>
        <mxCell id="T2i4QAdsJLNHDOcd7dDv-15" value="" style="rounded=0;whiteSpace=wrap;html=1;fillColor=none;" parent="1" vertex="1">
          <mxGeometry x="207.95000000000002" y="610" width="430" height="230" as="geometry" />
        </mxCell>
        <mxCell id="T2i4QAdsJLNHDOcd7dDv-16" value="" style="rounded=0;whiteSpace=wrap;html=1;fillColor=none;" parent="1" vertex="1">
          <mxGeometry x="980.67" y="615" width="430" height="220" as="geometry" />
        </mxCell>
        <mxCell id="T2i4QAdsJLNHDOcd7dDv-24" value="" style="rounded=0;whiteSpace=wrap;html=1;fillColor=none;" parent="1" vertex="1">
          <mxGeometry x="1999.29" y="607.5" width="240" height="230" as="geometry" />
        </mxCell>
        <mxCell id="T2i4QAdsJLNHDOcd7dDv-25" value="" style="rounded=0;whiteSpace=wrap;html=1;fillColor=none;" parent="1" vertex="1">
          <mxGeometry x="1669.29" y="607.5" width="240" height="230" as="geometry" />
        </mxCell>
        <mxCell id="T2i4QAdsJLNHDOcd7dDv-27" value="" style="endArrow=none;html=1;rounded=0;" parent="1" edge="1">
          <mxGeometry width="50" height="50" relative="1" as="geometry">
            <mxPoint x="204.01" y="85" as="sourcePoint" />
            <mxPoint x="634.01" y="85" as="targetPoint" />
          </mxGeometry>
        </mxCell>
        <mxCell id="T2i4QAdsJLNHDOcd7dDv-28" value="85" style="edgeLabel;html=1;align=center;verticalAlign=middle;resizable=0;points=[];" parent="T2i4QAdsJLNHDOcd7dDv-27" vertex="1" connectable="0">
          <mxGeometry x="-0.144" y="-1" relative="1" as="geometry">
            <mxPoint x="31" as="offset" />
          </mxGeometry>
        </mxCell>
        <mxCell id="T2i4QAdsJLNHDOcd7dDv-29" value="" style="endArrow=none;html=1;rounded=0;" parent="1" edge="1">
          <mxGeometry width="50" height="50" relative="1" as="geometry">
            <mxPoint x="184.72" y="105" as="sourcePoint" />
            <mxPoint x="184.72" y="335" as="targetPoint" />
          </mxGeometry>
        </mxCell>
        <mxCell id="T2i4QAdsJLNHDOcd7dDv-31" value="50" style="edgeLabel;html=1;align=center;verticalAlign=middle;resizable=0;points=[];rotation=-90;" parent="T2i4QAdsJLNHDOcd7dDv-29" vertex="1" connectable="0">
          <mxGeometry x="0.0375" y="1" relative="1" as="geometry">
            <mxPoint y="-4" as="offset" />
          </mxGeometry>
        </mxCell>
        <mxCell id="T2i4QAdsJLNHDOcd7dDv-32" value="" style="endArrow=none;html=1;rounded=0;" parent="1" edge="1">
          <mxGeometry width="50" height="50" relative="1" as="geometry">
            <mxPoint x="654.72" y="335" as="sourcePoint" />
            <mxPoint x="654.72" y="105" as="targetPoint" />
          </mxGeometry>
        </mxCell>
        <mxCell id="T2i4QAdsJLNHDOcd7dDv-33" value="50" style="edgeLabel;html=1;align=center;verticalAlign=middle;resizable=0;points=[];rotation=90;" parent="T2i4QAdsJLNHDOcd7dDv-32" vertex="1" connectable="0">
          <mxGeometry x="0.0375" y="1" relative="1" as="geometry">
            <mxPoint y="4" as="offset" />
          </mxGeometry>
        </mxCell>
        <mxCell id="T2i4QAdsJLNHDOcd7dDv-36" value="" style="endArrow=none;html=1;rounded=0;" parent="1" edge="1">
          <mxGeometry width="50" height="50" relative="1" as="geometry">
            <mxPoint x="204.72" y="355" as="sourcePoint" />
            <mxPoint x="634.72" y="355" as="targetPoint" />
          </mxGeometry>
        </mxCell>
        <mxCell id="T2i4QAdsJLNHDOcd7dDv-37" value="85" style="edgeLabel;html=1;align=center;verticalAlign=middle;resizable=0;points=[];rotation=-180;" parent="T2i4QAdsJLNHDOcd7dDv-36" vertex="1" connectable="0">
          <mxGeometry x="-0.144" y="-1" relative="1" as="geometry">
            <mxPoint x="31" as="offset" />
          </mxGeometry>
        </mxCell>
        <mxCell id="T2i4QAdsJLNHDOcd7dDv-38" value="" style="endArrow=none;html=1;rounded=0;" parent="1" edge="1">
          <mxGeometry width="50" height="50" relative="1" as="geometry">
            <mxPoint x="207.24" y="900" as="sourcePoint" />
            <mxPoint x="637.24" y="900" as="targetPoint" />
          </mxGeometry>
        </mxCell>
        <mxCell id="T2i4QAdsJLNHDOcd7dDv-39" value="85" style="edgeLabel;html=1;align=center;verticalAlign=middle;resizable=0;points=[];rotation=-180;" parent="T2i4QAdsJLNHDOcd7dDv-38" vertex="1" connectable="0">
          <mxGeometry x="-0.144" y="-1" relative="1" as="geometry">
            <mxPoint x="32" as="offset" />
          </mxGeometry>
        </mxCell>
        <mxCell id="T2i4QAdsJLNHDOcd7dDv-40" value="" style="endArrow=none;html=1;rounded=0;" parent="1" edge="1">
          <mxGeometry width="50" height="50" relative="1" as="geometry">
            <mxPoint x="207.24" y="550" as="sourcePoint" />
            <mxPoint x="637.24" y="550" as="targetPoint" />
          </mxGeometry>
        </mxCell>
        <mxCell id="T2i4QAdsJLNHDOcd7dDv-41" value="85" style="edgeLabel;html=1;align=center;verticalAlign=middle;resizable=0;points=[];" parent="T2i4QAdsJLNHDOcd7dDv-40" vertex="1" connectable="0">
          <mxGeometry x="-0.144" y="-1" relative="1" as="geometry">
            <mxPoint x="31" as="offset" />
          </mxGeometry>
        </mxCell>
        <mxCell id="T2i4QAdsJLNHDOcd7dDv-42" value="" style="endArrow=none;html=1;rounded=0;exitX=0;exitY=0;exitDx=0;exitDy=0;" parent="1" source="T2i4QAdsJLNHDOcd7dDv-15" edge="1">
          <mxGeometry width="50" height="50" relative="1" as="geometry">
            <mxPoint x="577.95" y="590" as="sourcePoint" />
            <mxPoint x="197.95000000000002" y="600" as="targetPoint" />
          </mxGeometry>
        </mxCell>
        <mxCell id="T2i4QAdsJLNHDOcd7dDv-43" value="" style="endArrow=none;html=1;rounded=0;" parent="1" edge="1">
          <mxGeometry width="50" height="50" relative="1" as="geometry">
            <mxPoint x="197.95000000000002" y="580" as="sourcePoint" />
            <mxPoint x="197.95000000000002" y="600" as="targetPoint" />
          </mxGeometry>
        </mxCell>
        <mxCell id="T2i4QAdsJLNHDOcd7dDv-46" value="" style="endArrow=none;html=1;rounded=0;" parent="1" edge="1">
          <mxGeometry width="50" height="50" relative="1" as="geometry">
            <mxPoint x="207.95000000000002" y="570" as="sourcePoint" />
            <mxPoint x="197.95000000000002" y="580" as="targetPoint" />
          </mxGeometry>
        </mxCell>
        <mxCell id="T2i4QAdsJLNHDOcd7dDv-47" value="" style="endArrow=none;html=1;rounded=0;exitX=0;exitY=0;exitDx=0;exitDy=0;" parent="1" edge="1">
          <mxGeometry width="50" height="50" relative="1" as="geometry">
            <mxPoint x="207.95000000000002" y="880" as="sourcePoint" />
            <mxPoint x="197.95000000000002" y="870" as="targetPoint" />
          </mxGeometry>
        </mxCell>
        <mxCell id="T2i4QAdsJLNHDOcd7dDv-48" value="" style="endArrow=none;html=1;rounded=0;" parent="1" edge="1">
          <mxGeometry width="50" height="50" relative="1" as="geometry">
            <mxPoint x="197.95000000000002" y="850" as="sourcePoint" />
            <mxPoint x="197.95000000000002" y="870" as="targetPoint" />
          </mxGeometry>
        </mxCell>
        <mxCell id="T2i4QAdsJLNHDOcd7dDv-49" value="" style="endArrow=none;html=1;rounded=0;" parent="1" edge="1">
          <mxGeometry width="50" height="50" relative="1" as="geometry">
            <mxPoint x="207.95000000000002" y="840" as="sourcePoint" />
            <mxPoint x="197.95000000000002" y="850" as="targetPoint" />
          </mxGeometry>
        </mxCell>
        <mxCell id="T2i4QAdsJLNHDOcd7dDv-50" value="" style="endArrow=none;html=1;rounded=0;" parent="1" edge="1">
          <mxGeometry width="50" height="50" relative="1" as="geometry">
            <mxPoint x="637.95" y="880" as="sourcePoint" />
            <mxPoint x="647.95" y="870" as="targetPoint" />
          </mxGeometry>
        </mxCell>
        <mxCell id="T2i4QAdsJLNHDOcd7dDv-51" value="" style="endArrow=none;html=1;rounded=0;" parent="1" edge="1">
          <mxGeometry width="50" height="50" relative="1" as="geometry">
            <mxPoint x="647.95" y="850" as="sourcePoint" />
            <mxPoint x="647.95" y="870" as="targetPoint" />
          </mxGeometry>
        </mxCell>
        <mxCell id="T2i4QAdsJLNHDOcd7dDv-52" value="" style="endArrow=none;html=1;rounded=0;exitX=1;exitY=1;exitDx=0;exitDy=0;" parent="1" source="T2i4QAdsJLNHDOcd7dDv-15" edge="1">
          <mxGeometry width="50" height="50" relative="1" as="geometry">
            <mxPoint x="287.95" y="850" as="sourcePoint" />
            <mxPoint x="647.95" y="850" as="targetPoint" />
          </mxGeometry>
        </mxCell>
        <mxCell id="T2i4QAdsJLNHDOcd7dDv-53" value="" style="endArrow=none;html=1;rounded=0;" parent="1" edge="1">
          <mxGeometry width="50" height="50" relative="1" as="geometry">
            <mxPoint x="637.24" y="610" as="sourcePoint" />
            <mxPoint x="647.24" y="600" as="targetPoint" />
          </mxGeometry>
        </mxCell>
        <mxCell id="T2i4QAdsJLNHDOcd7dDv-54" value="" style="endArrow=none;html=1;rounded=0;" parent="1" edge="1">
          <mxGeometry width="50" height="50" relative="1" as="geometry">
            <mxPoint x="647.24" y="580" as="sourcePoint" />
            <mxPoint x="647.24" y="600" as="targetPoint" />
          </mxGeometry>
        </mxCell>
        <mxCell id="T2i4QAdsJLNHDOcd7dDv-55" value="" style="endArrow=none;html=1;rounded=0;exitX=1;exitY=1;exitDx=0;exitDy=0;" parent="1" edge="1">
          <mxGeometry width="50" height="50" relative="1" as="geometry">
            <mxPoint x="637.24" y="570" as="sourcePoint" />
            <mxPoint x="647.24" y="580" as="targetPoint" />
          </mxGeometry>
        </mxCell>
        <mxCell id="T2i4QAdsJLNHDOcd7dDv-57" value="" style="endArrow=none;html=1;rounded=0;" parent="1" edge="1">
          <mxGeometry width="50" height="50" relative="1" as="geometry">
            <mxPoint x="207.95000000000002" y="570" as="sourcePoint" />
            <mxPoint x="637.95" y="570" as="targetPoint" />
          </mxGeometry>
        </mxCell>
        <mxCell id="T2i4QAdsJLNHDOcd7dDv-58" value="" style="endArrow=none;html=1;rounded=0;" parent="1" edge="1">
          <mxGeometry width="50" height="50" relative="1" as="geometry">
            <mxPoint x="207.24" y="880" as="sourcePoint" />
            <mxPoint x="637.24" y="880" as="targetPoint" />
          </mxGeometry>
        </mxCell>
        <mxCell id="T2i4QAdsJLNHDOcd7dDv-59" value="" style="endArrow=none;html=1;rounded=0;" parent="1" edge="1">
          <mxGeometry width="50" height="50" relative="1" as="geometry">
            <mxPoint x="177.95000000000002" y="610" as="sourcePoint" />
            <mxPoint x="177.95000000000002" y="570" as="targetPoint" />
          </mxGeometry>
        </mxCell>
        <mxCell id="T2i4QAdsJLNHDOcd7dDv-60" value="15" style="edgeLabel;html=1;align=center;verticalAlign=middle;resizable=0;points=[];rotation=-90;" parent="T2i4QAdsJLNHDOcd7dDv-59" vertex="1" connectable="0">
          <mxGeometry x="-0.0405" y="-1" relative="1" as="geometry">
            <mxPoint as="offset" />
          </mxGeometry>
        </mxCell>
        <mxCell id="T2i4QAdsJLNHDOcd7dDv-63" value="" style="endArrow=none;html=1;rounded=0;" parent="1" edge="1">
          <mxGeometry width="50" height="50" relative="1" as="geometry">
            <mxPoint x="157.95000000000002" y="880" as="sourcePoint" />
            <mxPoint x="157.95000000000002" y="570" as="targetPoint" />
          </mxGeometry>
        </mxCell>
        <mxCell id="T2i4QAdsJLNHDOcd7dDv-64" value="70" style="edgeLabel;html=1;align=center;verticalAlign=middle;resizable=0;points=[];rotation=-90;" parent="T2i4QAdsJLNHDOcd7dDv-63" vertex="1" connectable="0">
          <mxGeometry x="0.0332" relative="1" as="geometry">
            <mxPoint as="offset" />
          </mxGeometry>
        </mxCell>
        <mxCell id="T2i4QAdsJLNHDOcd7dDv-65" value="" style="endArrow=none;html=1;rounded=0;" parent="1" edge="1">
          <mxGeometry width="50" height="50" relative="1" as="geometry">
            <mxPoint x="687.95" y="880" as="sourcePoint" />
            <mxPoint x="687.95" y="570" as="targetPoint" />
          </mxGeometry>
        </mxCell>
        <mxCell id="T2i4QAdsJLNHDOcd7dDv-66" value="70" style="edgeLabel;html=1;align=center;verticalAlign=middle;resizable=0;points=[];rotation=90;" parent="T2i4QAdsJLNHDOcd7dDv-65" vertex="1" connectable="0">
          <mxGeometry x="0.0332" relative="1" as="geometry">
            <mxPoint as="offset" />
          </mxGeometry>
        </mxCell>
        <mxCell id="T2i4QAdsJLNHDOcd7dDv-68" value="" style="endArrow=none;html=1;rounded=0;" parent="1" edge="1">
          <mxGeometry width="50" height="50" relative="1" as="geometry">
            <mxPoint x="177.95000000000002" y="880" as="sourcePoint" />
            <mxPoint x="177.95000000000002" y="840" as="targetPoint" />
          </mxGeometry>
        </mxCell>
        <mxCell id="T2i4QAdsJLNHDOcd7dDv-69" value="15" style="edgeLabel;html=1;align=center;verticalAlign=middle;resizable=0;points=[];rotation=-90;" parent="T2i4QAdsJLNHDOcd7dDv-68" vertex="1" connectable="0">
          <mxGeometry x="-0.0405" y="-1" relative="1" as="geometry">
            <mxPoint as="offset" />
          </mxGeometry>
        </mxCell>
        <mxCell id="T2i4QAdsJLNHDOcd7dDv-70" value="" style="endArrow=none;html=1;rounded=0;" parent="1" edge="1">
          <mxGeometry width="50" height="50" relative="1" as="geometry">
            <mxPoint x="667.95" y="880" as="sourcePoint" />
            <mxPoint x="667.95" y="840" as="targetPoint" />
          </mxGeometry>
        </mxCell>
        <mxCell id="T2i4QAdsJLNHDOcd7dDv-71" value="15" style="edgeLabel;html=1;align=center;verticalAlign=middle;resizable=0;points=[];rotation=90;" parent="T2i4QAdsJLNHDOcd7dDv-70" vertex="1" connectable="0">
          <mxGeometry x="-0.0405" y="-1" relative="1" as="geometry">
            <mxPoint as="offset" />
          </mxGeometry>
        </mxCell>
        <mxCell id="T2i4QAdsJLNHDOcd7dDv-73" value="" style="endArrow=none;html=1;rounded=0;" parent="1" edge="1">
          <mxGeometry width="50" height="50" relative="1" as="geometry">
            <mxPoint x="667.95" y="610" as="sourcePoint" />
            <mxPoint x="667.95" y="570" as="targetPoint" />
          </mxGeometry>
        </mxCell>
        <mxCell id="T2i4QAdsJLNHDOcd7dDv-74" value="15" style="edgeLabel;html=1;align=center;verticalAlign=middle;resizable=0;points=[];rotation=90;" parent="T2i4QAdsJLNHDOcd7dDv-73" vertex="1" connectable="0">
          <mxGeometry x="-0.0405" y="-1" relative="1" as="geometry">
            <mxPoint as="offset" />
          </mxGeometry>
        </mxCell>
        <mxCell id="T2i4QAdsJLNHDOcd7dDv-75" value="" style="endArrow=none;html=1;rounded=0;" parent="1" edge="1">
          <mxGeometry width="50" height="50" relative="1" as="geometry">
            <mxPoint x="197.95000000000002" y="580" as="sourcePoint" />
            <mxPoint x="647.95" y="580" as="targetPoint" />
          </mxGeometry>
        </mxCell>
        <mxCell id="T2i4QAdsJLNHDOcd7dDv-76" value="" style="endArrow=none;html=1;rounded=0;" parent="1" edge="1">
          <mxGeometry width="50" height="50" relative="1" as="geometry">
            <mxPoint x="197.24" y="600" as="sourcePoint" />
            <mxPoint x="647.24" y="600" as="targetPoint" />
          </mxGeometry>
        </mxCell>
        <mxCell id="T2i4QAdsJLNHDOcd7dDv-77" value="" style="endArrow=none;html=1;rounded=0;" parent="1" edge="1">
          <mxGeometry width="50" height="50" relative="1" as="geometry">
            <mxPoint x="197.95000000000002" y="850" as="sourcePoint" />
            <mxPoint x="647.95" y="850" as="targetPoint" />
          </mxGeometry>
        </mxCell>
        <mxCell id="T2i4QAdsJLNHDOcd7dDv-78" value="" style="endArrow=none;html=1;rounded=0;" parent="1" edge="1">
          <mxGeometry width="50" height="50" relative="1" as="geometry">
            <mxPoint x="197.95000000000002" y="870" as="sourcePoint" />
            <mxPoint x="647.95" y="870" as="targetPoint" />
          </mxGeometry>
        </mxCell>
        <mxCell id="T2i4QAdsJLNHDOcd7dDv-79" value="S" style="text;html=1;strokeColor=none;fillColor=none;align=center;verticalAlign=middle;whiteSpace=wrap;rounded=0;" parent="1" vertex="1">
          <mxGeometry x="389.71999999999997" y="55" width="60" height="30" as="geometry" />
        </mxCell>
        <mxCell id="T2i4QAdsJLNHDOcd7dDv-80" value="S" style="text;html=1;strokeColor=none;fillColor=none;align=center;verticalAlign=middle;whiteSpace=wrap;rounded=0;" parent="1" vertex="1">
          <mxGeometry x="392.94999999999993" y="499.92" width="60" height="30" as="geometry" />
        </mxCell>
        <mxCell id="T2i4QAdsJLNHDOcd7dDv-81" value="S" style="text;html=1;strokeColor=none;fillColor=none;align=center;verticalAlign=middle;whiteSpace=wrap;rounded=0;" parent="1" vertex="1">
          <mxGeometry x="386.9599999999999" y="1060.83" width="60" height="30" as="geometry" />
        </mxCell>
        <mxCell id="T2i4QAdsJLNHDOcd7dDv-82" value="" style="rounded=0;whiteSpace=wrap;html=1;fillColor=none;" parent="1" vertex="1">
          <mxGeometry x="204.01" y="1151.9099999999999" width="430" height="230" as="geometry" />
        </mxCell>
        <mxCell id="T2i4QAdsJLNHDOcd7dDv-83" value="" style="endArrow=none;html=1;rounded=0;" parent="1" edge="1">
          <mxGeometry width="50" height="50" relative="1" as="geometry">
            <mxPoint x="201.92" y="1090.83" as="sourcePoint" />
            <mxPoint x="631.92" y="1090.83" as="targetPoint" />
          </mxGeometry>
        </mxCell>
        <mxCell id="T2i4QAdsJLNHDOcd7dDv-84" value="85" style="edgeLabel;html=1;align=center;verticalAlign=middle;resizable=0;points=[];" parent="T2i4QAdsJLNHDOcd7dDv-83" vertex="1" connectable="0">
          <mxGeometry x="-0.144" y="-1" relative="1" as="geometry">
            <mxPoint x="31" as="offset" />
          </mxGeometry>
        </mxCell>
        <mxCell id="T2i4QAdsJLNHDOcd7dDv-85" value="" style="endArrow=none;html=1;rounded=0;exitX=0;exitY=0;exitDx=0;exitDy=0;" parent="1" source="T2i4QAdsJLNHDOcd7dDv-82" edge="1">
          <mxGeometry width="50" height="50" relative="1" as="geometry">
            <mxPoint x="572.63" y="1130.83" as="sourcePoint" />
            <mxPoint x="192.63" y="1140.83" as="targetPoint" />
          </mxGeometry>
        </mxCell>
        <mxCell id="T2i4QAdsJLNHDOcd7dDv-86" value="" style="endArrow=none;html=1;rounded=0;" parent="1" edge="1">
          <mxGeometry width="50" height="50" relative="1" as="geometry">
            <mxPoint x="192.63" y="1120.83" as="sourcePoint" />
            <mxPoint x="192.63" y="1140.83" as="targetPoint" />
          </mxGeometry>
        </mxCell>
        <mxCell id="T2i4QAdsJLNHDOcd7dDv-87" value="" style="endArrow=none;html=1;rounded=0;" parent="1" edge="1">
          <mxGeometry width="50" height="50" relative="1" as="geometry">
            <mxPoint x="202.63" y="1110.83" as="sourcePoint" />
            <mxPoint x="192.63" y="1120.83" as="targetPoint" />
          </mxGeometry>
        </mxCell>
        <mxCell id="T2i4QAdsJLNHDOcd7dDv-88" value="" style="endArrow=none;html=1;rounded=0;exitX=0;exitY=0;exitDx=0;exitDy=0;" parent="1" edge="1">
          <mxGeometry width="50" height="50" relative="1" as="geometry">
            <mxPoint x="202.63" y="1420.83" as="sourcePoint" />
            <mxPoint x="192.63" y="1410.83" as="targetPoint" />
          </mxGeometry>
        </mxCell>
        <mxCell id="T2i4QAdsJLNHDOcd7dDv-89" value="" style="endArrow=none;html=1;rounded=0;" parent="1" edge="1">
          <mxGeometry width="50" height="50" relative="1" as="geometry">
            <mxPoint x="192.63" y="1390.83" as="sourcePoint" />
            <mxPoint x="192.63" y="1410.83" as="targetPoint" />
          </mxGeometry>
        </mxCell>
        <mxCell id="T2i4QAdsJLNHDOcd7dDv-90" value="" style="endArrow=none;html=1;rounded=0;exitX=-0.001;exitY=0.997;exitDx=0;exitDy=0;exitPerimeter=0;" parent="1" source="T2i4QAdsJLNHDOcd7dDv-82" edge="1">
          <mxGeometry width="50" height="50" relative="1" as="geometry">
            <mxPoint x="202.63" y="1380.83" as="sourcePoint" />
            <mxPoint x="192.63" y="1390.83" as="targetPoint" />
          </mxGeometry>
        </mxCell>
        <mxCell id="T2i4QAdsJLNHDOcd7dDv-91" value="" style="endArrow=none;html=1;rounded=0;" parent="1" edge="1">
          <mxGeometry width="50" height="50" relative="1" as="geometry">
            <mxPoint x="632.63" y="1420.83" as="sourcePoint" />
            <mxPoint x="642.63" y="1410.83" as="targetPoint" />
          </mxGeometry>
        </mxCell>
        <mxCell id="T2i4QAdsJLNHDOcd7dDv-92" value="" style="endArrow=none;html=1;rounded=0;" parent="1" edge="1">
          <mxGeometry width="50" height="50" relative="1" as="geometry">
            <mxPoint x="642.63" y="1390.83" as="sourcePoint" />
            <mxPoint x="642.63" y="1410.83" as="targetPoint" />
          </mxGeometry>
        </mxCell>
        <mxCell id="T2i4QAdsJLNHDOcd7dDv-93" value="" style="endArrow=none;html=1;rounded=0;exitX=1;exitY=1;exitDx=0;exitDy=0;" parent="1" source="T2i4QAdsJLNHDOcd7dDv-82" edge="1">
          <mxGeometry width="50" height="50" relative="1" as="geometry">
            <mxPoint x="282.63" y="1390.83" as="sourcePoint" />
            <mxPoint x="642.63" y="1390.83" as="targetPoint" />
          </mxGeometry>
        </mxCell>
        <mxCell id="T2i4QAdsJLNHDOcd7dDv-94" value="" style="endArrow=none;html=1;rounded=0;exitX=0.997;exitY=0.006;exitDx=0;exitDy=0;exitPerimeter=0;" parent="1" source="T2i4QAdsJLNHDOcd7dDv-82" edge="1">
          <mxGeometry width="50" height="50" relative="1" as="geometry">
            <mxPoint x="631.92" y="1150.83" as="sourcePoint" />
            <mxPoint x="641.92" y="1140.83" as="targetPoint" />
          </mxGeometry>
        </mxCell>
        <mxCell id="T2i4QAdsJLNHDOcd7dDv-95" value="" style="endArrow=none;html=1;rounded=0;" parent="1" edge="1">
          <mxGeometry width="50" height="50" relative="1" as="geometry">
            <mxPoint x="641.92" y="1120.83" as="sourcePoint" />
            <mxPoint x="641.92" y="1140.83" as="targetPoint" />
          </mxGeometry>
        </mxCell>
        <mxCell id="T2i4QAdsJLNHDOcd7dDv-96" value="" style="endArrow=none;html=1;rounded=0;exitX=1;exitY=1;exitDx=0;exitDy=0;" parent="1" edge="1">
          <mxGeometry width="50" height="50" relative="1" as="geometry">
            <mxPoint x="631.92" y="1110.83" as="sourcePoint" />
            <mxPoint x="641.92" y="1120.83" as="targetPoint" />
          </mxGeometry>
        </mxCell>
        <mxCell id="T2i4QAdsJLNHDOcd7dDv-97" value="" style="endArrow=none;html=1;rounded=0;" parent="1" edge="1">
          <mxGeometry width="50" height="50" relative="1" as="geometry">
            <mxPoint x="202.63" y="1110.83" as="sourcePoint" />
            <mxPoint x="632.63" y="1110.83" as="targetPoint" />
          </mxGeometry>
        </mxCell>
        <mxCell id="T2i4QAdsJLNHDOcd7dDv-98" value="" style="endArrow=none;html=1;rounded=0;" parent="1" edge="1">
          <mxGeometry width="50" height="50" relative="1" as="geometry">
            <mxPoint x="201.92" y="1420.83" as="sourcePoint" />
            <mxPoint x="634.01" y="1420.83" as="targetPoint" />
          </mxGeometry>
        </mxCell>
        <mxCell id="T2i4QAdsJLNHDOcd7dDv-99" value="" style="endArrow=none;html=1;rounded=0;" parent="1" edge="1">
          <mxGeometry width="50" height="50" relative="1" as="geometry">
            <mxPoint x="172.63" y="1150.83" as="sourcePoint" />
            <mxPoint x="172.63" y="1110.83" as="targetPoint" />
          </mxGeometry>
        </mxCell>
        <mxCell id="T2i4QAdsJLNHDOcd7dDv-100" value="15" style="edgeLabel;html=1;align=center;verticalAlign=middle;resizable=0;points=[];rotation=-90;" parent="T2i4QAdsJLNHDOcd7dDv-99" vertex="1" connectable="0">
          <mxGeometry x="-0.0405" y="-1" relative="1" as="geometry">
            <mxPoint as="offset" />
          </mxGeometry>
        </mxCell>
        <mxCell id="T2i4QAdsJLNHDOcd7dDv-101" value="" style="endArrow=none;html=1;rounded=0;" parent="1" edge="1">
          <mxGeometry width="50" height="50" relative="1" as="geometry">
            <mxPoint x="152.63" y="1420.83" as="sourcePoint" />
            <mxPoint x="152.63" y="1110.83" as="targetPoint" />
          </mxGeometry>
        </mxCell>
        <mxCell id="T2i4QAdsJLNHDOcd7dDv-102" value="70" style="edgeLabel;html=1;align=center;verticalAlign=middle;resizable=0;points=[];rotation=-90;" parent="T2i4QAdsJLNHDOcd7dDv-101" vertex="1" connectable="0">
          <mxGeometry x="0.0332" relative="1" as="geometry">
            <mxPoint as="offset" />
          </mxGeometry>
        </mxCell>
        <mxCell id="T2i4QAdsJLNHDOcd7dDv-103" value="" style="endArrow=none;html=1;rounded=0;" parent="1" edge="1">
          <mxGeometry width="50" height="50" relative="1" as="geometry">
            <mxPoint x="682.63" y="1420.83" as="sourcePoint" />
            <mxPoint x="682.63" y="1110.83" as="targetPoint" />
          </mxGeometry>
        </mxCell>
        <mxCell id="T2i4QAdsJLNHDOcd7dDv-104" value="70" style="edgeLabel;html=1;align=center;verticalAlign=middle;resizable=0;points=[];rotation=90;" parent="T2i4QAdsJLNHDOcd7dDv-103" vertex="1" connectable="0">
          <mxGeometry x="0.0332" relative="1" as="geometry">
            <mxPoint as="offset" />
          </mxGeometry>
        </mxCell>
        <mxCell id="T2i4QAdsJLNHDOcd7dDv-105" value="" style="endArrow=none;html=1;rounded=0;" parent="1" edge="1">
          <mxGeometry width="50" height="50" relative="1" as="geometry">
            <mxPoint x="172.63" y="1420.83" as="sourcePoint" />
            <mxPoint x="172.63" y="1380.83" as="targetPoint" />
          </mxGeometry>
        </mxCell>
        <mxCell id="T2i4QAdsJLNHDOcd7dDv-106" value="15" style="edgeLabel;html=1;align=center;verticalAlign=middle;resizable=0;points=[];rotation=-90;" parent="T2i4QAdsJLNHDOcd7dDv-105" vertex="1" connectable="0">
          <mxGeometry x="-0.0405" y="-1" relative="1" as="geometry">
            <mxPoint as="offset" />
          </mxGeometry>
        </mxCell>
        <mxCell id="T2i4QAdsJLNHDOcd7dDv-107" value="" style="endArrow=none;html=1;rounded=0;" parent="1" edge="1">
          <mxGeometry width="50" height="50" relative="1" as="geometry">
            <mxPoint x="662.63" y="1420.83" as="sourcePoint" />
            <mxPoint x="662.63" y="1380.83" as="targetPoint" />
          </mxGeometry>
        </mxCell>
        <mxCell id="T2i4QAdsJLNHDOcd7dDv-108" value="15" style="edgeLabel;html=1;align=center;verticalAlign=middle;resizable=0;points=[];rotation=90;" parent="T2i4QAdsJLNHDOcd7dDv-107" vertex="1" connectable="0">
          <mxGeometry x="-0.0405" y="-1" relative="1" as="geometry">
            <mxPoint as="offset" />
          </mxGeometry>
        </mxCell>
        <mxCell id="T2i4QAdsJLNHDOcd7dDv-109" value="" style="endArrow=none;html=1;rounded=0;" parent="1" edge="1">
          <mxGeometry width="50" height="50" relative="1" as="geometry">
            <mxPoint x="662.63" y="1150.83" as="sourcePoint" />
            <mxPoint x="662.63" y="1110.83" as="targetPoint" />
          </mxGeometry>
        </mxCell>
        <mxCell id="T2i4QAdsJLNHDOcd7dDv-110" value="15" style="edgeLabel;html=1;align=center;verticalAlign=middle;resizable=0;points=[];rotation=90;" parent="T2i4QAdsJLNHDOcd7dDv-109" vertex="1" connectable="0">
          <mxGeometry x="-0.0405" y="-1" relative="1" as="geometry">
            <mxPoint as="offset" />
          </mxGeometry>
        </mxCell>
        <mxCell id="T2i4QAdsJLNHDOcd7dDv-111" value="" style="endArrow=none;html=1;rounded=0;" parent="1" edge="1">
          <mxGeometry width="50" height="50" relative="1" as="geometry">
            <mxPoint x="192.63" y="1120.83" as="sourcePoint" />
            <mxPoint x="642.63" y="1120.83" as="targetPoint" />
          </mxGeometry>
        </mxCell>
        <mxCell id="T2i4QAdsJLNHDOcd7dDv-112" value="" style="endArrow=none;html=1;rounded=0;" parent="1" edge="1">
          <mxGeometry width="50" height="50" relative="1" as="geometry">
            <mxPoint x="191.92" y="1140.83" as="sourcePoint" />
            <mxPoint x="641.92" y="1140.83" as="targetPoint" />
          </mxGeometry>
        </mxCell>
        <mxCell id="T2i4QAdsJLNHDOcd7dDv-113" value="" style="endArrow=none;html=1;rounded=0;" parent="1" edge="1">
          <mxGeometry width="50" height="50" relative="1" as="geometry">
            <mxPoint x="192.63" y="1390.83" as="sourcePoint" />
            <mxPoint x="642.63" y="1390.83" as="targetPoint" />
          </mxGeometry>
        </mxCell>
        <mxCell id="T2i4QAdsJLNHDOcd7dDv-114" value="" style="endArrow=none;html=1;rounded=0;" parent="1" edge="1">
          <mxGeometry width="50" height="50" relative="1" as="geometry">
            <mxPoint x="192.63" y="1410.83" as="sourcePoint" />
            <mxPoint x="642.63" y="1410.83" as="targetPoint" />
          </mxGeometry>
        </mxCell>
        <mxCell id="T2i4QAdsJLNHDOcd7dDv-115" value="I" style="text;html=1;strokeColor=none;fillColor=none;align=center;verticalAlign=middle;whiteSpace=wrap;rounded=0;" parent="1" vertex="1">
          <mxGeometry x="387.62999999999994" y="1451.33" width="60" height="30" as="geometry" />
        </mxCell>
        <mxCell id="T2i4QAdsJLNHDOcd7dDv-116" value="" style="endArrow=none;html=1;rounded=0;" parent="1" edge="1">
          <mxGeometry width="50" height="50" relative="1" as="geometry">
            <mxPoint x="202.63" y="1441.33" as="sourcePoint" />
            <mxPoint x="632.63" y="1441.33" as="targetPoint" />
          </mxGeometry>
        </mxCell>
        <mxCell id="T2i4QAdsJLNHDOcd7dDv-117" value="85" style="edgeLabel;html=1;align=center;verticalAlign=middle;resizable=0;points=[];rotation=-180;" parent="T2i4QAdsJLNHDOcd7dDv-116" vertex="1" connectable="0">
          <mxGeometry x="-0.144" y="-1" relative="1" as="geometry">
            <mxPoint x="31" as="offset" />
          </mxGeometry>
        </mxCell>
        <mxCell id="T2i4QAdsJLNHDOcd7dDv-118" value="" style="ellipse;whiteSpace=wrap;html=1;aspect=fixed;fillColor=none;" parent="1" vertex="1">
          <mxGeometry x="234.09" y="1110.5" width="40.33" height="40.33" as="geometry" />
        </mxCell>
        <mxCell id="T2i4QAdsJLNHDOcd7dDv-119" value="" style="ellipse;whiteSpace=wrap;html=1;aspect=fixed;fillColor=none;" parent="1" vertex="1">
          <mxGeometry x="564.01" y="1111.58" width="40" height="40" as="geometry" />
        </mxCell>
        <mxCell id="T2i4QAdsJLNHDOcd7dDv-122" value="&lt;font style=&quot;font-size: 6px;&quot;&gt;Fan port&lt;/font&gt;" style="text;html=1;strokeColor=none;fillColor=none;align=center;verticalAlign=middle;whiteSpace=wrap;rounded=0;" parent="1" vertex="1">
          <mxGeometry x="264.01" y="1121.83" width="50" height="19.5" as="geometry" />
        </mxCell>
        <mxCell id="T2i4QAdsJLNHDOcd7dDv-123" value="&lt;font style=&quot;font-size: 6px;&quot;&gt;Fan port&lt;/font&gt;" style="text;html=1;strokeColor=none;fillColor=none;align=center;verticalAlign=middle;whiteSpace=wrap;rounded=0;" parent="1" vertex="1">
          <mxGeometry x="523.13" y="1121.83" width="50" height="19.5" as="geometry" />
        </mxCell>
        <mxCell id="T2i4QAdsJLNHDOcd7dDv-126" value="" style="ellipse;whiteSpace=wrap;html=1;aspect=fixed;fillColor=none;" parent="1" vertex="1">
          <mxGeometry x="287.95" y="730" width="80" height="80" as="geometry" />
        </mxCell>
        <mxCell id="T2i4QAdsJLNHDOcd7dDv-128" value="" style="ellipse;whiteSpace=wrap;html=1;aspect=fixed;fillColor=none;" parent="1" vertex="1">
          <mxGeometry x="477.95" y="730" width="80" height="80" as="geometry" />
        </mxCell>
        <mxCell id="T2i4QAdsJLNHDOcd7dDv-129" value="" style="endArrow=none;html=1;rounded=0;exitX=0;exitY=0.5;exitDx=0;exitDy=0;entryX=1;entryY=0.5;entryDx=0;entryDy=0;" parent="1" edge="1">
          <mxGeometry width="50" height="50" relative="1" as="geometry">
            <mxPoint x="287.95" y="710" as="sourcePoint" />
            <mxPoint x="367.95" y="710" as="targetPoint" />
          </mxGeometry>
        </mxCell>
        <mxCell id="T2i4QAdsJLNHDOcd7dDv-130" value="15" style="edgeLabel;html=1;align=center;verticalAlign=middle;resizable=0;points=[];" parent="T2i4QAdsJLNHDOcd7dDv-129" vertex="1" connectable="0">
          <mxGeometry x="0.4611" y="-1" relative="1" as="geometry">
            <mxPoint x="-18" as="offset" />
          </mxGeometry>
        </mxCell>
        <mxCell id="T2i4QAdsJLNHDOcd7dDv-131" value="" style="endArrow=none;html=1;rounded=0;exitX=0;exitY=0.5;exitDx=0;exitDy=0;entryX=1;entryY=0.5;entryDx=0;entryDy=0;" parent="1" edge="1">
          <mxGeometry width="50" height="50" relative="1" as="geometry">
            <mxPoint x="477.95" y="710" as="sourcePoint" />
            <mxPoint x="557.95" y="710" as="targetPoint" />
          </mxGeometry>
        </mxCell>
        <mxCell id="T2i4QAdsJLNHDOcd7dDv-132" value="15" style="edgeLabel;html=1;align=center;verticalAlign=middle;resizable=0;points=[];" parent="T2i4QAdsJLNHDOcd7dDv-131" vertex="1" connectable="0">
          <mxGeometry x="0.4611" y="-1" relative="1" as="geometry">
            <mxPoint x="-18" as="offset" />
          </mxGeometry>
        </mxCell>
        <mxCell id="T2i4QAdsJLNHDOcd7dDv-135" value="Back" style="text;html=1;strokeColor=none;fillColor=none;align=center;verticalAlign=middle;whiteSpace=wrap;rounded=0;" parent="1" vertex="1">
          <mxGeometry x="573.13" y="1441.33" width="60" height="30" as="geometry" />
        </mxCell>
        <mxCell id="T2i4QAdsJLNHDOcd7dDv-136" value="Front&amp;nbsp;" style="text;html=1;strokeColor=none;fillColor=none;align=center;verticalAlign=middle;whiteSpace=wrap;rounded=0;" parent="1" vertex="1">
          <mxGeometry x="570" y="920" width="60" height="30" as="geometry" />
        </mxCell>
        <mxCell id="T2i4QAdsJLNHDOcd7dDv-137" value="Front (glass box)" style="text;html=1;strokeColor=none;fillColor=none;align=center;verticalAlign=middle;whiteSpace=wrap;rounded=0;" parent="1" vertex="1">
          <mxGeometry x="534.72" y="355" width="100" height="30" as="geometry" />
        </mxCell>
        <mxCell id="T2i4QAdsJLNHDOcd7dDv-144" value="" style="endArrow=none;html=1;rounded=0;entryX=0.75;entryY=0;entryDx=0;entryDy=0;exitX=0.75;exitY=1;exitDx=0;exitDy=0;" parent="1" edge="1">
          <mxGeometry width="50" height="50" relative="1" as="geometry">
            <mxPoint x="1440.67" y="350" as="sourcePoint" />
            <mxPoint x="1440.67" y="110" as="targetPoint" />
          </mxGeometry>
        </mxCell>
        <mxCell id="T2i4QAdsJLNHDOcd7dDv-150" value="50" style="edgeLabel;html=1;align=center;verticalAlign=middle;resizable=0;points=[];rotation=90;" parent="T2i4QAdsJLNHDOcd7dDv-144" vertex="1" connectable="0">
          <mxGeometry x="0.0319" y="-4" relative="1" as="geometry">
            <mxPoint y="4" as="offset" />
          </mxGeometry>
        </mxCell>
        <mxCell id="T2i4QAdsJLNHDOcd7dDv-146" value="" style="endArrow=none;html=1;rounded=0;" parent="1" edge="1">
          <mxGeometry width="50" height="50" relative="1" as="geometry">
            <mxPoint x="950.67" y="350" as="sourcePoint" />
            <mxPoint x="950.67" y="110" as="targetPoint" />
          </mxGeometry>
        </mxCell>
        <mxCell id="T2i4QAdsJLNHDOcd7dDv-147" value="50" style="edgeLabel;html=1;align=center;verticalAlign=middle;resizable=0;points=[];rotation=-90;" parent="T2i4QAdsJLNHDOcd7dDv-146" vertex="1" connectable="0">
          <mxGeometry x="0.0375" y="1" relative="1" as="geometry">
            <mxPoint y="4" as="offset" />
          </mxGeometry>
        </mxCell>
        <mxCell id="T2i4QAdsJLNHDOcd7dDv-148" value="" style="endArrow=none;html=1;rounded=0;entryX=1;entryY=0;entryDx=0;entryDy=0;" parent="1" target="T2i4QAdsJLNHDOcd7dDv-154" edge="1">
          <mxGeometry x="-0.0227" width="50" height="50" relative="1" as="geometry">
            <mxPoint x="970.67" y="370" as="sourcePoint" />
            <mxPoint x="1410.67" y="370" as="targetPoint" />
            <mxPoint as="offset" />
          </mxGeometry>
        </mxCell>
        <mxCell id="T2i4QAdsJLNHDOcd7dDv-151" value="95" style="edgeLabel;html=1;align=center;verticalAlign=middle;resizable=0;points=[];rotation=-179;" parent="T2i4QAdsJLNHDOcd7dDv-148" vertex="1" connectable="0">
          <mxGeometry x="-0.0091" relative="1" as="geometry">
            <mxPoint x="2" as="offset" />
          </mxGeometry>
        </mxCell>
        <mxCell id="T2i4QAdsJLNHDOcd7dDv-152" value="" style="rounded=0;whiteSpace=wrap;html=1;fillColor=none;" parent="1" vertex="1">
          <mxGeometry x="980.67" y="120" width="430" height="220" as="geometry" />
        </mxCell>
        <mxCell id="T2i4QAdsJLNHDOcd7dDv-153" value="Top (glass box)" style="text;html=1;strokeColor=none;fillColor=none;align=center;verticalAlign=middle;whiteSpace=wrap;rounded=0;" parent="1" vertex="1">
          <mxGeometry x="1300.67" y="855" width="110" height="30" as="geometry" />
        </mxCell>
        <mxCell id="T2i4QAdsJLNHDOcd7dDv-154" value="Top (metal boxes)" style="text;html=1;strokeColor=none;fillColor=none;align=center;verticalAlign=middle;whiteSpace=wrap;rounded=0;" parent="1" vertex="1">
          <mxGeometry x="1310.67" y="370" width="110" height="30" as="geometry" />
        </mxCell>
        <mxCell id="T2i4QAdsJLNHDOcd7dDv-155" value="" style="endArrow=none;html=1;rounded=0;" parent="1" edge="1">
          <mxGeometry width="50" height="50" relative="1" as="geometry">
            <mxPoint x="960.67" y="835" as="sourcePoint" />
            <mxPoint x="960.67" y="615" as="targetPoint" />
          </mxGeometry>
        </mxCell>
        <mxCell id="T2i4QAdsJLNHDOcd7dDv-158" value="40" style="edgeLabel;html=1;align=center;verticalAlign=middle;resizable=0;points=[];rotation=-90;" parent="T2i4QAdsJLNHDOcd7dDv-155" vertex="1" connectable="0">
          <mxGeometry x="0.0885" relative="1" as="geometry">
            <mxPoint y="10" as="offset" />
          </mxGeometry>
        </mxCell>
        <mxCell id="T2i4QAdsJLNHDOcd7dDv-161" value="" style="endArrow=none;html=1;rounded=0;" parent="1" edge="1">
          <mxGeometry width="50" height="50" relative="1" as="geometry">
            <mxPoint x="980.67" y="595" as="sourcePoint" />
            <mxPoint x="1410.67" y="595" as="targetPoint" />
          </mxGeometry>
        </mxCell>
        <mxCell id="T2i4QAdsJLNHDOcd7dDv-162" value="85" style="edgeLabel;html=1;align=center;verticalAlign=middle;resizable=0;points=[];" parent="T2i4QAdsJLNHDOcd7dDv-161" vertex="1" connectable="0">
          <mxGeometry x="-0.144" y="-1" relative="1" as="geometry">
            <mxPoint x="31" as="offset" />
          </mxGeometry>
        </mxCell>
        <mxCell id="T2i4QAdsJLNHDOcd7dDv-163" value="" style="endArrow=none;html=1;rounded=0;" parent="1" edge="1">
          <mxGeometry width="50" height="50" relative="1" as="geometry">
            <mxPoint x="980.67" y="855" as="sourcePoint" />
            <mxPoint x="1410.67" y="855" as="targetPoint" />
          </mxGeometry>
        </mxCell>
        <mxCell id="T2i4QAdsJLNHDOcd7dDv-164" value="85" style="edgeLabel;html=1;align=center;verticalAlign=middle;resizable=0;points=[];rotation=-180;" parent="T2i4QAdsJLNHDOcd7dDv-163" vertex="1" connectable="0">
          <mxGeometry x="-0.144" y="-1" relative="1" as="geometry">
            <mxPoint x="31" as="offset" />
          </mxGeometry>
        </mxCell>
        <mxCell id="T2i4QAdsJLNHDOcd7dDv-165" value="" style="endArrow=none;html=1;rounded=0;" parent="1" edge="1">
          <mxGeometry width="50" height="50" relative="1" as="geometry">
            <mxPoint x="1430.67" y="835" as="sourcePoint" />
            <mxPoint x="1430.67" y="615" as="targetPoint" />
          </mxGeometry>
        </mxCell>
        <mxCell id="T2i4QAdsJLNHDOcd7dDv-166" value="40" style="edgeLabel;html=1;align=center;verticalAlign=middle;resizable=0;points=[];rotation=90;" parent="T2i4QAdsJLNHDOcd7dDv-165" vertex="1" connectable="0">
          <mxGeometry x="0.0885" relative="1" as="geometry">
            <mxPoint y="10" as="offset" />
          </mxGeometry>
        </mxCell>
        <mxCell id="T2i4QAdsJLNHDOcd7dDv-169" value="" style="endArrow=none;html=1;rounded=0;" parent="1" edge="1">
          <mxGeometry width="50" height="50" relative="1" as="geometry">
            <mxPoint x="930.67" y="340" as="sourcePoint" />
            <mxPoint x="930.67" y="120" as="targetPoint" />
          </mxGeometry>
        </mxCell>
        <mxCell id="T2i4QAdsJLNHDOcd7dDv-170" value="40" style="edgeLabel;html=1;align=center;verticalAlign=middle;resizable=0;points=[];rotation=-90;" parent="T2i4QAdsJLNHDOcd7dDv-169" vertex="1" connectable="0">
          <mxGeometry x="0.0885" relative="1" as="geometry">
            <mxPoint y="10" as="offset" />
          </mxGeometry>
        </mxCell>
        <mxCell id="T2i4QAdsJLNHDOcd7dDv-171" value="" style="endArrow=none;html=1;rounded=0;" parent="1" edge="1">
          <mxGeometry width="50" height="50" relative="1" as="geometry">
            <mxPoint x="1460.67" y="340" as="sourcePoint" />
            <mxPoint x="1460.67" y="120" as="targetPoint" />
          </mxGeometry>
        </mxCell>
        <mxCell id="T2i4QAdsJLNHDOcd7dDv-172" value="40" style="edgeLabel;html=1;align=center;verticalAlign=middle;resizable=0;points=[];rotation=90;" parent="T2i4QAdsJLNHDOcd7dDv-171" vertex="1" connectable="0">
          <mxGeometry x="0.0885" relative="1" as="geometry">
            <mxPoint y="10" as="offset" />
          </mxGeometry>
        </mxCell>
        <mxCell id="T2i4QAdsJLNHDOcd7dDv-173" value="" style="endArrow=none;html=1;rounded=0;entryX=0;entryY=0;entryDx=0;entryDy=0;exitX=0;exitY=0;exitDx=0;exitDy=0;" parent="1" source="T2i4QAdsJLNHDOcd7dDv-152" target="T2i4QAdsJLNHDOcd7dDv-13" edge="1">
          <mxGeometry width="50" height="50" relative="1" as="geometry">
            <mxPoint x="960.67" y="300" as="sourcePoint" />
            <mxPoint x="1010.67" y="250" as="targetPoint" />
          </mxGeometry>
        </mxCell>
        <mxCell id="T2i4QAdsJLNHDOcd7dDv-174" value="" style="endArrow=none;html=1;rounded=0;entryX=0;entryY=1;entryDx=0;entryDy=0;exitX=0;exitY=1;exitDx=0;exitDy=0;" parent="1" source="T2i4QAdsJLNHDOcd7dDv-13" target="T2i4QAdsJLNHDOcd7dDv-152" edge="1">
          <mxGeometry width="50" height="50" relative="1" as="geometry">
            <mxPoint x="1000.67" y="350" as="sourcePoint" />
            <mxPoint x="990.67" y="340" as="targetPoint" />
          </mxGeometry>
        </mxCell>
        <mxCell id="T2i4QAdsJLNHDOcd7dDv-175" value="" style="endArrow=none;html=1;rounded=0;entryX=1;entryY=1;entryDx=0;entryDy=0;exitX=0.996;exitY=0.998;exitDx=0;exitDy=0;exitPerimeter=0;" parent="1" source="T2i4QAdsJLNHDOcd7dDv-152" target="T2i4QAdsJLNHDOcd7dDv-13" edge="1">
          <mxGeometry width="50" height="50" relative="1" as="geometry">
            <mxPoint x="990.67" y="360" as="sourcePoint" />
            <mxPoint x="1000.67" y="350" as="targetPoint" />
          </mxGeometry>
        </mxCell>
        <mxCell id="T2i4QAdsJLNHDOcd7dDv-176" value="" style="endArrow=none;html=1;rounded=0;entryX=1;entryY=0;entryDx=0;entryDy=0;exitX=1;exitY=0;exitDx=0;exitDy=0;" parent="1" source="T2i4QAdsJLNHDOcd7dDv-152" target="T2i4QAdsJLNHDOcd7dDv-13" edge="1">
          <mxGeometry width="50" height="50" relative="1" as="geometry">
            <mxPoint x="1410.67" y="120" as="sourcePoint" />
            <mxPoint x="1410.67" y="110" as="targetPoint" />
          </mxGeometry>
        </mxCell>
        <mxCell id="UoYVCRtw9k-o6EkpWfz--2" value="I" style="text;html=1;strokeColor=none;fillColor=none;align=center;verticalAlign=middle;whiteSpace=wrap;rounded=0;" parent="1" vertex="1">
          <mxGeometry x="392.94999999999993" y="920" width="60" height="30" as="geometry" />
        </mxCell>
        <mxCell id="UoYVCRtw9k-o6EkpWfz--4" value="I" style="text;html=1;strokeColor=none;fillColor=none;align=center;verticalAlign=middle;whiteSpace=wrap;rounded=0;" parent="1" vertex="1">
          <mxGeometry x="389.71999999999997" y="355" width="60" height="30" as="geometry" />
        </mxCell>
        <mxCell id="UoYVCRtw9k-o6EkpWfz--5" value="P" style="text;html=1;strokeColor=none;fillColor=none;align=center;verticalAlign=middle;whiteSpace=wrap;rounded=0;" parent="1" vertex="1">
          <mxGeometry x="1165.67" y="60" width="60" height="30" as="geometry" />
        </mxCell>
        <mxCell id="UoYVCRtw9k-o6EkpWfz--6" value="A" style="text;html=1;strokeColor=none;fillColor=none;align=center;verticalAlign=middle;whiteSpace=wrap;rounded=0;" parent="1" vertex="1">
          <mxGeometry x="1165.67" y="370" width="60" height="30" as="geometry" />
        </mxCell>
        <mxCell id="UoYVCRtw9k-o6EkpWfz--8" value="P" style="text;html=1;strokeColor=none;fillColor=none;align=center;verticalAlign=middle;whiteSpace=wrap;rounded=0;" parent="1" vertex="1">
          <mxGeometry x="1165.67" y="565" width="60" height="30" as="geometry" />
        </mxCell>
        <mxCell id="UoYVCRtw9k-o6EkpWfz--9" value="A" style="text;html=1;strokeColor=none;fillColor=none;align=center;verticalAlign=middle;whiteSpace=wrap;rounded=0;" parent="1" vertex="1">
          <mxGeometry x="1165.67" y="855" width="60" height="30" as="geometry" />
        </mxCell>
        <mxCell id="UoYVCRtw9k-o6EkpWfz--25" value="95" style="endArrow=none;html=1;rounded=0;" parent="1" edge="1">
          <mxGeometry width="50" height="50" relative="1" as="geometry">
            <mxPoint x="197.95000000000002" y="529.92" as="sourcePoint" />
            <mxPoint x="647.95" y="529.92" as="targetPoint" />
          </mxGeometry>
        </mxCell>
        <mxCell id="UoYVCRtw9k-o6EkpWfz--26" value="95" style="endArrow=none;html=1;rounded=0;" parent="1" edge="1">
          <mxGeometry width="50" height="50" relative="1" as="geometry">
            <mxPoint x="970.67" y="90" as="sourcePoint" />
            <mxPoint x="1420.67" y="90" as="targetPoint" />
          </mxGeometry>
        </mxCell>
        <mxCell id="UoYVCRtw9k-o6EkpWfz--31" value="L" style="text;html=1;strokeColor=none;fillColor=none;align=center;verticalAlign=middle;whiteSpace=wrap;rounded=0;rotation=0;" parent="1" vertex="1">
          <mxGeometry x="910.67" y="710" width="60" height="30" as="geometry" />
        </mxCell>
        <mxCell id="UoYVCRtw9k-o6EkpWfz--32" value="R" style="text;html=1;strokeColor=none;fillColor=none;align=center;verticalAlign=middle;whiteSpace=wrap;rounded=0;rotation=0;" parent="1" vertex="1">
          <mxGeometry x="1420.67" y="710" width="60" height="30" as="geometry" />
        </mxCell>
        <mxCell id="UoYVCRtw9k-o6EkpWfz--33" value="L" style="text;html=1;strokeColor=none;fillColor=none;align=center;verticalAlign=middle;whiteSpace=wrap;rounded=0;rotation=0;" parent="1" vertex="1">
          <mxGeometry x="881.23" y="215" width="60" height="30" as="geometry" />
        </mxCell>
        <mxCell id="UoYVCRtw9k-o6EkpWfz--34" value="R" style="text;html=1;strokeColor=none;fillColor=none;align=center;verticalAlign=middle;whiteSpace=wrap;rounded=0;rotation=0;" parent="1" vertex="1">
          <mxGeometry x="1450.67" y="215" width="60" height="30" as="geometry" />
        </mxCell>
        <mxCell id="UoYVCRtw9k-o6EkpWfz--37" value="Top inside (upper metal box)" style="text;html=1;strokeColor=none;fillColor=none;align=center;verticalAlign=middle;whiteSpace=wrap;rounded=0;" parent="1" vertex="1">
          <mxGeometry x="2020" y="370" width="180" height="30" as="geometry" />
        </mxCell>
        <mxCell id="UoYVCRtw9k-o6EkpWfz--38" value="Top inside (lower metal box)" style="text;html=1;strokeColor=none;fillColor=none;align=center;verticalAlign=middle;whiteSpace=wrap;rounded=0;" parent="1" vertex="1">
          <mxGeometry x="1251.3400000000001" y="1411.9099999999999" width="180" height="30" as="geometry" />
        </mxCell>
        <mxCell id="UoYVCRtw9k-o6EkpWfz--39" value="" style="rounded=0;whiteSpace=wrap;html=1;fillColor=none;" parent="1" vertex="1">
          <mxGeometry x="1730" y="100" width="450" height="240" as="geometry" />
        </mxCell>
        <mxCell id="UoYVCRtw9k-o6EkpWfz--40" value="" style="endArrow=none;html=1;rounded=0;entryX=0.75;entryY=0;entryDx=0;entryDy=0;exitX=0.75;exitY=1;exitDx=0;exitDy=0;" parent="1" edge="1">
          <mxGeometry width="50" height="50" relative="1" as="geometry">
            <mxPoint x="2200" y="340" as="sourcePoint" />
            <mxPoint x="2200" y="100" as="targetPoint" />
          </mxGeometry>
        </mxCell>
        <mxCell id="UoYVCRtw9k-o6EkpWfz--41" value="50" style="edgeLabel;html=1;align=center;verticalAlign=middle;resizable=0;points=[];rotation=90;" parent="UoYVCRtw9k-o6EkpWfz--40" vertex="1" connectable="0">
          <mxGeometry x="0.0319" y="-4" relative="1" as="geometry">
            <mxPoint y="4" as="offset" />
          </mxGeometry>
        </mxCell>
        <mxCell id="UoYVCRtw9k-o6EkpWfz--42" value="" style="endArrow=none;html=1;rounded=0;" parent="1" edge="1">
          <mxGeometry width="50" height="50" relative="1" as="geometry">
            <mxPoint x="1710" y="340" as="sourcePoint" />
            <mxPoint x="1710" y="100" as="targetPoint" />
          </mxGeometry>
        </mxCell>
        <mxCell id="UoYVCRtw9k-o6EkpWfz--43" value="50" style="edgeLabel;html=1;align=center;verticalAlign=middle;resizable=0;points=[];rotation=-90;" parent="UoYVCRtw9k-o6EkpWfz--42" vertex="1" connectable="0">
          <mxGeometry x="0.0375" y="1" relative="1" as="geometry">
            <mxPoint y="4" as="offset" />
          </mxGeometry>
        </mxCell>
        <mxCell id="UoYVCRtw9k-o6EkpWfz--44" value="" style="endArrow=none;html=1;rounded=0;entryX=1;entryY=0;entryDx=0;entryDy=0;" parent="1" edge="1">
          <mxGeometry x="-0.0227" width="50" height="50" relative="1" as="geometry">
            <mxPoint x="1730" y="360" as="sourcePoint" />
            <mxPoint x="2180" y="360" as="targetPoint" />
            <mxPoint as="offset" />
          </mxGeometry>
        </mxCell>
        <mxCell id="UoYVCRtw9k-o6EkpWfz--45" value="95" style="edgeLabel;html=1;align=center;verticalAlign=middle;resizable=0;points=[];rotation=-179;" parent="UoYVCRtw9k-o6EkpWfz--44" vertex="1" connectable="0">
          <mxGeometry x="-0.0091" relative="1" as="geometry">
            <mxPoint x="2" as="offset" />
          </mxGeometry>
        </mxCell>
        <mxCell id="UoYVCRtw9k-o6EkpWfz--46" value="" style="rounded=0;whiteSpace=wrap;html=1;fillColor=none;" parent="1" vertex="1">
          <mxGeometry x="1740" y="110" width="430" height="220" as="geometry" />
        </mxCell>
        <mxCell id="UoYVCRtw9k-o6EkpWfz--48" value="" style="endArrow=none;html=1;rounded=0;" parent="1" edge="1">
          <mxGeometry width="50" height="50" relative="1" as="geometry">
            <mxPoint x="1690" y="330" as="sourcePoint" />
            <mxPoint x="1690" y="110" as="targetPoint" />
          </mxGeometry>
        </mxCell>
        <mxCell id="UoYVCRtw9k-o6EkpWfz--49" value="40" style="edgeLabel;html=1;align=center;verticalAlign=middle;resizable=0;points=[];rotation=-90;" parent="UoYVCRtw9k-o6EkpWfz--48" vertex="1" connectable="0">
          <mxGeometry x="0.0885" relative="1" as="geometry">
            <mxPoint y="10" as="offset" />
          </mxGeometry>
        </mxCell>
        <mxCell id="UoYVCRtw9k-o6EkpWfz--50" value="" style="endArrow=none;html=1;rounded=0;" parent="1" edge="1">
          <mxGeometry width="50" height="50" relative="1" as="geometry">
            <mxPoint x="2220" y="330" as="sourcePoint" />
            <mxPoint x="2220" y="110" as="targetPoint" />
          </mxGeometry>
        </mxCell>
        <mxCell id="UoYVCRtw9k-o6EkpWfz--51" value="40" style="edgeLabel;html=1;align=center;verticalAlign=middle;resizable=0;points=[];rotation=90;" parent="UoYVCRtw9k-o6EkpWfz--50" vertex="1" connectable="0">
          <mxGeometry x="0.0885" relative="1" as="geometry">
            <mxPoint y="10" as="offset" />
          </mxGeometry>
        </mxCell>
        <mxCell id="UoYVCRtw9k-o6EkpWfz--52" value="" style="endArrow=none;html=1;rounded=0;entryX=0;entryY=0;entryDx=0;entryDy=0;exitX=0;exitY=0;exitDx=0;exitDy=0;" parent="1" source="UoYVCRtw9k-o6EkpWfz--46" target="UoYVCRtw9k-o6EkpWfz--39" edge="1">
          <mxGeometry width="50" height="50" relative="1" as="geometry">
            <mxPoint x="1720" y="290" as="sourcePoint" />
            <mxPoint x="1770" y="240" as="targetPoint" />
          </mxGeometry>
        </mxCell>
        <mxCell id="UoYVCRtw9k-o6EkpWfz--53" value="" style="endArrow=none;html=1;rounded=0;entryX=0;entryY=1;entryDx=0;entryDy=0;exitX=0;exitY=1;exitDx=0;exitDy=0;" parent="1" source="UoYVCRtw9k-o6EkpWfz--39" target="UoYVCRtw9k-o6EkpWfz--46" edge="1">
          <mxGeometry width="50" height="50" relative="1" as="geometry">
            <mxPoint x="1760" y="340" as="sourcePoint" />
            <mxPoint x="1750" y="330" as="targetPoint" />
          </mxGeometry>
        </mxCell>
        <mxCell id="UoYVCRtw9k-o6EkpWfz--54" value="" style="endArrow=none;html=1;rounded=0;entryX=1;entryY=1;entryDx=0;entryDy=0;exitX=0.996;exitY=0.998;exitDx=0;exitDy=0;exitPerimeter=0;" parent="1" source="UoYVCRtw9k-o6EkpWfz--46" target="UoYVCRtw9k-o6EkpWfz--39" edge="1">
          <mxGeometry width="50" height="50" relative="1" as="geometry">
            <mxPoint x="1750" y="350" as="sourcePoint" />
            <mxPoint x="1760" y="340" as="targetPoint" />
          </mxGeometry>
        </mxCell>
        <mxCell id="UoYVCRtw9k-o6EkpWfz--55" value="" style="endArrow=none;html=1;rounded=0;entryX=1;entryY=0;entryDx=0;entryDy=0;exitX=1;exitY=0;exitDx=0;exitDy=0;" parent="1" source="UoYVCRtw9k-o6EkpWfz--46" target="UoYVCRtw9k-o6EkpWfz--39" edge="1">
          <mxGeometry width="50" height="50" relative="1" as="geometry">
            <mxPoint x="2170" y="110" as="sourcePoint" />
            <mxPoint x="2170" y="100" as="targetPoint" />
          </mxGeometry>
        </mxCell>
        <mxCell id="UoYVCRtw9k-o6EkpWfz--56" value="P" style="text;html=1;strokeColor=none;fillColor=none;align=center;verticalAlign=middle;whiteSpace=wrap;rounded=0;" parent="1" vertex="1">
          <mxGeometry x="1925" y="50" width="60" height="30" as="geometry" />
        </mxCell>
        <mxCell id="UoYVCRtw9k-o6EkpWfz--57" value="A" style="text;html=1;strokeColor=none;fillColor=none;align=center;verticalAlign=middle;whiteSpace=wrap;rounded=0;" parent="1" vertex="1">
          <mxGeometry x="1925" y="360" width="60" height="30" as="geometry" />
        </mxCell>
        <mxCell id="UoYVCRtw9k-o6EkpWfz--58" value="95" style="endArrow=none;html=1;rounded=0;" parent="1" edge="1">
          <mxGeometry width="50" height="50" relative="1" as="geometry">
            <mxPoint x="1730" y="80" as="sourcePoint" />
            <mxPoint x="2180" y="80" as="targetPoint" />
          </mxGeometry>
        </mxCell>
        <mxCell id="UoYVCRtw9k-o6EkpWfz--59" value="L" style="text;html=1;strokeColor=none;fillColor=none;align=center;verticalAlign=middle;whiteSpace=wrap;rounded=0;rotation=0;" parent="1" vertex="1">
          <mxGeometry x="1640" y="205" width="60" height="30" as="geometry" />
        </mxCell>
        <mxCell id="UoYVCRtw9k-o6EkpWfz--62" value="" style="ellipse;whiteSpace=wrap;html=1;aspect=fixed;fillColor=none;" parent="1" vertex="1">
          <mxGeometry x="232" y="1381.58" width="40.33" height="40.33" as="geometry" />
        </mxCell>
        <mxCell id="UoYVCRtw9k-o6EkpWfz--64" value="&lt;font style=&quot;font-size: 6px;&quot;&gt;Fan port&lt;/font&gt;" style="text;html=1;strokeColor=none;fillColor=none;align=center;verticalAlign=middle;whiteSpace=wrap;rounded=0;" parent="1" vertex="1">
          <mxGeometry x="261.92" y="1392.9099999999999" width="50" height="19.5" as="geometry" />
        </mxCell>
        <mxCell id="UoYVCRtw9k-o6EkpWfz--65" value="&lt;font style=&quot;font-size: 6px;&quot;&gt;Fan port&lt;/font&gt;" style="text;html=1;strokeColor=none;fillColor=none;align=center;verticalAlign=middle;whiteSpace=wrap;rounded=0;" parent="1" vertex="1">
          <mxGeometry x="521.04" y="1392.9099999999999" width="50" height="19.5" as="geometry" />
        </mxCell>
        <mxCell id="UoYVCRtw9k-o6EkpWfz--66" value="" style="ellipse;whiteSpace=wrap;html=1;aspect=fixed;fillColor=none;" parent="1" vertex="1">
          <mxGeometry x="564.01" y="1381.9099999999999" width="40" height="40" as="geometry" />
        </mxCell>
        <mxCell id="UoYVCRtw9k-o6EkpWfz--67" value="" style="ellipse;whiteSpace=wrap;html=1;aspect=fixed;fillColor=none;" parent="1" vertex="1">
          <mxGeometry x="1770" y="119.99999999999996" width="40.33" height="40.33" as="geometry" />
        </mxCell>
        <mxCell id="UoYVCRtw9k-o6EkpWfz--68" value="" style="ellipse;whiteSpace=wrap;html=1;aspect=fixed;fillColor=none;" parent="1" vertex="1">
          <mxGeometry x="2100.88" y="279.9999999999999" width="40" height="40" as="geometry" />
        </mxCell>
        <mxCell id="UoYVCRtw9k-o6EkpWfz--69" value="&lt;font style=&quot;font-size: 6px;&quot;&gt;Fan port&lt;/font&gt;" style="text;html=1;strokeColor=none;fillColor=none;align=center;verticalAlign=middle;whiteSpace=wrap;rounded=0;" parent="1" vertex="1">
          <mxGeometry x="1799.92" y="131.3299999999999" width="50" height="19.5" as="geometry" />
        </mxCell>
        <mxCell id="UoYVCRtw9k-o6EkpWfz--70" value="&lt;font style=&quot;font-size: 6px;&quot;&gt;Fan port&lt;/font&gt;" style="text;html=1;strokeColor=none;fillColor=none;align=center;verticalAlign=middle;whiteSpace=wrap;rounded=0;" parent="1" vertex="1">
          <mxGeometry x="2060" y="290.2499999999999" width="50" height="19.5" as="geometry" />
        </mxCell>
        <mxCell id="UoYVCRtw9k-o6EkpWfz--73" value="" style="endArrow=none;html=1;rounded=0;exitX=1;exitY=0.5;exitDx=0;exitDy=0;" parent="1" edge="1">
          <mxGeometry width="50" height="50" relative="1" as="geometry">
            <mxPoint x="1810.3299999999717" y="140.16500000000008" as="sourcePoint" />
            <mxPoint x="1810" y="340" as="targetPoint" />
          </mxGeometry>
        </mxCell>
        <mxCell id="UoYVCRtw9k-o6EkpWfz--74" value="" style="endArrow=none;html=1;rounded=0;exitX=1;exitY=0.5;exitDx=0;exitDy=0;" parent="1" edge="1">
          <mxGeometry width="50" height="50" relative="1" as="geometry">
            <mxPoint x="1770" y="140" as="sourcePoint" />
            <mxPoint x="1770" y="340" as="targetPoint" />
          </mxGeometry>
        </mxCell>
        <mxCell id="UoYVCRtw9k-o6EkpWfz--75" value="" style="endArrow=none;html=1;rounded=0;exitX=0;exitY=0.5;exitDx=0;exitDy=0;" parent="1" edge="1">
          <mxGeometry width="50" height="50" relative="1" as="geometry">
            <mxPoint x="2100.320000000036" y="299.9999999999999" as="sourcePoint" />
            <mxPoint x="2100.3199999999997" y="340" as="targetPoint" />
          </mxGeometry>
        </mxCell>
        <mxCell id="UoYVCRtw9k-o6EkpWfz--76" value="" style="endArrow=none;html=1;rounded=0;exitX=0;exitY=0.5;exitDx=0;exitDy=0;" parent="1" edge="1">
          <mxGeometry width="50" height="50" relative="1" as="geometry">
            <mxPoint x="2140.32" y="300" as="sourcePoint" />
            <mxPoint x="2140.32" y="340" as="targetPoint" />
          </mxGeometry>
        </mxCell>
        <mxCell id="UoYVCRtw9k-o6EkpWfz--77" value="" style="rounded=0;whiteSpace=wrap;html=1;fillColor=none;" parent="1" vertex="1">
          <mxGeometry x="970.6700000000001" y="1141.9099999999999" width="450" height="240" as="geometry" />
        </mxCell>
        <mxCell id="UoYVCRtw9k-o6EkpWfz--78" value="" style="endArrow=none;html=1;rounded=0;entryX=0.75;entryY=0;entryDx=0;entryDy=0;exitX=0.75;exitY=1;exitDx=0;exitDy=0;" parent="1" edge="1">
          <mxGeometry width="50" height="50" relative="1" as="geometry">
            <mxPoint x="1440.67" y="1381.9099999999999" as="sourcePoint" />
            <mxPoint x="1440.67" y="1141.9099999999999" as="targetPoint" />
          </mxGeometry>
        </mxCell>
        <mxCell id="UoYVCRtw9k-o6EkpWfz--79" value="50" style="edgeLabel;html=1;align=center;verticalAlign=middle;resizable=0;points=[];rotation=90;" parent="UoYVCRtw9k-o6EkpWfz--78" vertex="1" connectable="0">
          <mxGeometry x="0.0319" y="-4" relative="1" as="geometry">
            <mxPoint y="4" as="offset" />
          </mxGeometry>
        </mxCell>
        <mxCell id="UoYVCRtw9k-o6EkpWfz--80" value="" style="endArrow=none;html=1;rounded=0;" parent="1" edge="1">
          <mxGeometry width="50" height="50" relative="1" as="geometry">
            <mxPoint x="950.6700000000001" y="1381.9099999999999" as="sourcePoint" />
            <mxPoint x="950.6700000000001" y="1141.9099999999999" as="targetPoint" />
          </mxGeometry>
        </mxCell>
        <mxCell id="UoYVCRtw9k-o6EkpWfz--81" value="50" style="edgeLabel;html=1;align=center;verticalAlign=middle;resizable=0;points=[];rotation=-90;" parent="UoYVCRtw9k-o6EkpWfz--80" vertex="1" connectable="0">
          <mxGeometry x="0.0375" y="1" relative="1" as="geometry">
            <mxPoint y="4" as="offset" />
          </mxGeometry>
        </mxCell>
        <mxCell id="UoYVCRtw9k-o6EkpWfz--82" value="" style="endArrow=none;html=1;rounded=0;entryX=1;entryY=0;entryDx=0;entryDy=0;" parent="1" edge="1">
          <mxGeometry x="-0.0227" width="50" height="50" relative="1" as="geometry">
            <mxPoint x="970.6700000000001" y="1401.9099999999999" as="sourcePoint" />
            <mxPoint x="1420.67" y="1401.9099999999999" as="targetPoint" />
            <mxPoint as="offset" />
          </mxGeometry>
        </mxCell>
        <mxCell id="UoYVCRtw9k-o6EkpWfz--83" value="95" style="edgeLabel;html=1;align=center;verticalAlign=middle;resizable=0;points=[];rotation=-179;" parent="UoYVCRtw9k-o6EkpWfz--82" vertex="1" connectable="0">
          <mxGeometry x="-0.0091" relative="1" as="geometry">
            <mxPoint x="2" as="offset" />
          </mxGeometry>
        </mxCell>
        <mxCell id="UoYVCRtw9k-o6EkpWfz--84" value="" style="rounded=0;whiteSpace=wrap;html=1;fillColor=none;" parent="1" vertex="1">
          <mxGeometry x="980.6700000000001" y="1151.9099999999999" width="430" height="220" as="geometry" />
        </mxCell>
        <mxCell id="UoYVCRtw9k-o6EkpWfz--85" value="" style="endArrow=none;html=1;rounded=0;" parent="1" edge="1">
          <mxGeometry width="50" height="50" relative="1" as="geometry">
            <mxPoint x="930.6700000000001" y="1371.9099999999999" as="sourcePoint" />
            <mxPoint x="930.6700000000001" y="1151.9099999999999" as="targetPoint" />
          </mxGeometry>
        </mxCell>
        <mxCell id="UoYVCRtw9k-o6EkpWfz--86" value="40" style="edgeLabel;html=1;align=center;verticalAlign=middle;resizable=0;points=[];rotation=-90;" parent="UoYVCRtw9k-o6EkpWfz--85" vertex="1" connectable="0">
          <mxGeometry x="0.0885" relative="1" as="geometry">
            <mxPoint y="10" as="offset" />
          </mxGeometry>
        </mxCell>
        <mxCell id="UoYVCRtw9k-o6EkpWfz--87" value="" style="endArrow=none;html=1;rounded=0;" parent="1" edge="1">
          <mxGeometry width="50" height="50" relative="1" as="geometry">
            <mxPoint x="1460.67" y="1371.9099999999999" as="sourcePoint" />
            <mxPoint x="1460.67" y="1151.9099999999999" as="targetPoint" />
          </mxGeometry>
        </mxCell>
        <mxCell id="UoYVCRtw9k-o6EkpWfz--88" value="40" style="edgeLabel;html=1;align=center;verticalAlign=middle;resizable=0;points=[];rotation=90;" parent="UoYVCRtw9k-o6EkpWfz--87" vertex="1" connectable="0">
          <mxGeometry x="0.0885" relative="1" as="geometry">
            <mxPoint y="10" as="offset" />
          </mxGeometry>
        </mxCell>
        <mxCell id="UoYVCRtw9k-o6EkpWfz--89" value="" style="endArrow=none;html=1;rounded=0;entryX=0;entryY=0;entryDx=0;entryDy=0;exitX=0;exitY=0;exitDx=0;exitDy=0;" parent="1" source="UoYVCRtw9k-o6EkpWfz--84" target="UoYVCRtw9k-o6EkpWfz--77" edge="1">
          <mxGeometry width="50" height="50" relative="1" as="geometry">
            <mxPoint x="960.6700000000001" y="1331.9099999999999" as="sourcePoint" />
            <mxPoint x="1010.6700000000001" y="1281.9099999999999" as="targetPoint" />
          </mxGeometry>
        </mxCell>
        <mxCell id="UoYVCRtw9k-o6EkpWfz--90" value="" style="endArrow=none;html=1;rounded=0;entryX=0;entryY=1;entryDx=0;entryDy=0;exitX=0;exitY=1;exitDx=0;exitDy=0;" parent="1" source="UoYVCRtw9k-o6EkpWfz--77" target="UoYVCRtw9k-o6EkpWfz--84" edge="1">
          <mxGeometry width="50" height="50" relative="1" as="geometry">
            <mxPoint x="1000.6700000000001" y="1381.9099999999999" as="sourcePoint" />
            <mxPoint x="990.6700000000001" y="1371.9099999999999" as="targetPoint" />
          </mxGeometry>
        </mxCell>
        <mxCell id="UoYVCRtw9k-o6EkpWfz--91" value="" style="endArrow=none;html=1;rounded=0;entryX=1;entryY=1;entryDx=0;entryDy=0;exitX=0.996;exitY=0.998;exitDx=0;exitDy=0;exitPerimeter=0;" parent="1" source="UoYVCRtw9k-o6EkpWfz--84" target="UoYVCRtw9k-o6EkpWfz--77" edge="1">
          <mxGeometry width="50" height="50" relative="1" as="geometry">
            <mxPoint x="990.6700000000001" y="1391.9099999999999" as="sourcePoint" />
            <mxPoint x="1000.6700000000001" y="1381.9099999999999" as="targetPoint" />
          </mxGeometry>
        </mxCell>
        <mxCell id="UoYVCRtw9k-o6EkpWfz--92" value="" style="endArrow=none;html=1;rounded=0;entryX=1;entryY=0;entryDx=0;entryDy=0;exitX=1;exitY=0;exitDx=0;exitDy=0;" parent="1" source="UoYVCRtw9k-o6EkpWfz--84" target="UoYVCRtw9k-o6EkpWfz--77" edge="1">
          <mxGeometry width="50" height="50" relative="1" as="geometry">
            <mxPoint x="1410.67" y="1151.9099999999999" as="sourcePoint" />
            <mxPoint x="1410.67" y="1141.9099999999999" as="targetPoint" />
          </mxGeometry>
        </mxCell>
        <mxCell id="UoYVCRtw9k-o6EkpWfz--93" value="P" style="text;html=1;strokeColor=none;fillColor=none;align=center;verticalAlign=middle;whiteSpace=wrap;rounded=0;" parent="1" vertex="1">
          <mxGeometry x="1165.67" y="1091.9099999999999" width="60" height="30" as="geometry" />
        </mxCell>
        <mxCell id="UoYVCRtw9k-o6EkpWfz--94" value="A" style="text;html=1;strokeColor=none;fillColor=none;align=center;verticalAlign=middle;whiteSpace=wrap;rounded=0;" parent="1" vertex="1">
          <mxGeometry x="1165.67" y="1401.9099999999999" width="60" height="30" as="geometry" />
        </mxCell>
        <mxCell id="UoYVCRtw9k-o6EkpWfz--95" value="95" style="endArrow=none;html=1;rounded=0;" parent="1" edge="1">
          <mxGeometry width="50" height="50" relative="1" as="geometry">
            <mxPoint x="970.6700000000001" y="1121.9099999999999" as="sourcePoint" />
            <mxPoint x="1420.67" y="1121.9099999999999" as="targetPoint" />
          </mxGeometry>
        </mxCell>
        <mxCell id="UoYVCRtw9k-o6EkpWfz--96" value="" style="ellipse;whiteSpace=wrap;html=1;aspect=fixed;fillColor=none;" parent="1" vertex="1">
          <mxGeometry x="1341.5700000000002" y="1161.9099999999999" width="40.33" height="40.33" as="geometry" />
        </mxCell>
        <mxCell id="UoYVCRtw9k-o6EkpWfz--97" value="" style="ellipse;whiteSpace=wrap;html=1;aspect=fixed;fillColor=none;" parent="1" vertex="1">
          <mxGeometry x="1011.9000000000001" y="1321.9099999999999" width="40" height="40" as="geometry" />
        </mxCell>
        <mxCell id="UoYVCRtw9k-o6EkpWfz--98" value="&lt;font style=&quot;font-size: 6px;&quot;&gt;Fan port&lt;/font&gt;" style="text;html=1;strokeColor=none;fillColor=none;align=center;verticalAlign=middle;whiteSpace=wrap;rounded=0;" parent="1" vertex="1">
          <mxGeometry x="1291.5700000000002" y="1172.3299999999997" width="50" height="19.5" as="geometry" />
        </mxCell>
        <mxCell id="UoYVCRtw9k-o6EkpWfz--99" value="&lt;font style=&quot;font-size: 6px;&quot;&gt;Fan port&lt;/font&gt;" style="text;html=1;strokeColor=none;fillColor=none;align=center;verticalAlign=middle;whiteSpace=wrap;rounded=0;" parent="1" vertex="1">
          <mxGeometry x="1051.9" y="1332.1599999999999" width="50" height="19.5" as="geometry" />
        </mxCell>
        <mxCell id="UoYVCRtw9k-o6EkpWfz--100" value="" style="endArrow=none;html=1;rounded=0;exitX=1;exitY=0.5;exitDx=0;exitDy=0;" parent="1" edge="1">
          <mxGeometry width="50" height="50" relative="1" as="geometry">
            <mxPoint x="1381.8999999999724" y="1182.0749999999998" as="sourcePoint" />
            <mxPoint x="1381.5700000000006" y="1381.9099999999999" as="targetPoint" />
          </mxGeometry>
        </mxCell>
        <mxCell id="UoYVCRtw9k-o6EkpWfz--101" value="" style="endArrow=none;html=1;rounded=0;exitX=1;exitY=0.5;exitDx=0;exitDy=0;" parent="1" edge="1">
          <mxGeometry width="50" height="50" relative="1" as="geometry">
            <mxPoint x="1341.5700000000002" y="1181.9099999999999" as="sourcePoint" />
            <mxPoint x="1341.5700000000002" y="1381.9099999999999" as="targetPoint" />
          </mxGeometry>
        </mxCell>
        <mxCell id="UoYVCRtw9k-o6EkpWfz--102" value="" style="endArrow=none;html=1;rounded=0;exitX=0;exitY=0.5;exitDx=0;exitDy=0;" parent="1" edge="1">
          <mxGeometry width="50" height="50" relative="1" as="geometry">
            <mxPoint x="1011.3400000000356" y="1341.9099999999999" as="sourcePoint" />
            <mxPoint x="1011.3399999999997" y="1381.9099999999999" as="targetPoint" />
          </mxGeometry>
        </mxCell>
        <mxCell id="UoYVCRtw9k-o6EkpWfz--103" value="" style="endArrow=none;html=1;rounded=0;exitX=0;exitY=0.5;exitDx=0;exitDy=0;" parent="1" edge="1">
          <mxGeometry width="50" height="50" relative="1" as="geometry">
            <mxPoint x="1051.3400000000001" y="1341.9099999999999" as="sourcePoint" />
            <mxPoint x="1051.3400000000001" y="1381.9099999999999" as="targetPoint" />
          </mxGeometry>
        </mxCell>
        <mxCell id="UoYVCRtw9k-o6EkpWfz--105" value="Left side (glass box)" style="text;html=1;strokeColor=none;fillColor=none;align=center;verticalAlign=middle;whiteSpace=wrap;rounded=0;" parent="1" vertex="1">
          <mxGeometry x="1804.29" y="867.5" width="110" height="30" as="geometry" />
        </mxCell>
        <mxCell id="UoYVCRtw9k-o6EkpWfz--106" value="" style="endArrow=none;html=1;rounded=0;" parent="1" edge="1">
          <mxGeometry width="50" height="50" relative="1" as="geometry">
            <mxPoint x="1909.29" y="587.5" as="sourcePoint" />
            <mxPoint x="1669.29" y="587.5" as="targetPoint" />
          </mxGeometry>
        </mxCell>
        <mxCell id="UoYVCRtw9k-o6EkpWfz--108" value="40" style="edgeLabel;html=1;align=center;verticalAlign=middle;resizable=0;points=[];" parent="UoYVCRtw9k-o6EkpWfz--106" vertex="1" connectable="0">
          <mxGeometry x="0.086" y="2" relative="1" as="geometry">
            <mxPoint x="10" as="offset" />
          </mxGeometry>
        </mxCell>
        <mxCell id="UoYVCRtw9k-o6EkpWfz--109" value="" style="endArrow=none;html=1;rounded=0;" parent="1" edge="1">
          <mxGeometry width="50" height="50" relative="1" as="geometry">
            <mxPoint x="1649.29" y="607.5" as="sourcePoint" />
            <mxPoint x="1649.29" y="837.5" as="targetPoint" />
          </mxGeometry>
        </mxCell>
        <mxCell id="UoYVCRtw9k-o6EkpWfz--111" value="50" style="edgeLabel;html=1;align=center;verticalAlign=middle;resizable=0;points=[];rotation=-90;" parent="UoYVCRtw9k-o6EkpWfz--109" vertex="1" connectable="0">
          <mxGeometry x="-0.0171" y="3" relative="1" as="geometry">
            <mxPoint y="2" as="offset" />
          </mxGeometry>
        </mxCell>
        <mxCell id="UoYVCRtw9k-o6EkpWfz--112" value="" style="endArrow=none;html=1;rounded=0;" parent="1" edge="1">
          <mxGeometry width="50" height="50" relative="1" as="geometry">
            <mxPoint x="2239.29" y="587.5" as="sourcePoint" />
            <mxPoint x="1999.29" y="587.5" as="targetPoint" />
          </mxGeometry>
        </mxCell>
        <mxCell id="UoYVCRtw9k-o6EkpWfz--113" value="40" style="edgeLabel;html=1;align=center;verticalAlign=middle;resizable=0;points=[];" parent="UoYVCRtw9k-o6EkpWfz--112" vertex="1" connectable="0">
          <mxGeometry x="0.086" y="2" relative="1" as="geometry">
            <mxPoint x="10" as="offset" />
          </mxGeometry>
        </mxCell>
        <mxCell id="UoYVCRtw9k-o6EkpWfz--114" value="" style="endArrow=none;html=1;rounded=0;" parent="1" edge="1">
          <mxGeometry width="50" height="50" relative="1" as="geometry">
            <mxPoint x="1979.62" y="607.5" as="sourcePoint" />
            <mxPoint x="1979.62" y="837.5" as="targetPoint" />
          </mxGeometry>
        </mxCell>
        <mxCell id="UoYVCRtw9k-o6EkpWfz--115" value="50" style="edgeLabel;html=1;align=center;verticalAlign=middle;resizable=0;points=[];rotation=-90;" parent="UoYVCRtw9k-o6EkpWfz--114" vertex="1" connectable="0">
          <mxGeometry x="-0.0171" y="3" relative="1" as="geometry">
            <mxPoint y="2" as="offset" />
          </mxGeometry>
        </mxCell>
        <mxCell id="UoYVCRtw9k-o6EkpWfz--126" value="" style="endArrow=none;html=1;rounded=0;" parent="1" edge="1">
          <mxGeometry width="50" height="50" relative="1" as="geometry">
            <mxPoint x="197.95000000000002" y="920" as="sourcePoint" />
            <mxPoint x="647.95" y="920" as="targetPoint" />
          </mxGeometry>
        </mxCell>
        <mxCell id="UoYVCRtw9k-o6EkpWfz--128" value="95" style="edgeLabel;html=1;align=center;verticalAlign=middle;resizable=0;points=[];rotation=-180;" parent="UoYVCRtw9k-o6EkpWfz--126" vertex="1" connectable="0">
          <mxGeometry x="-0.0311" relative="1" as="geometry">
            <mxPoint x="7" as="offset" />
          </mxGeometry>
        </mxCell>
        <mxCell id="UoYVCRtw9k-o6EkpWfz--129" value="L" style="text;html=1;strokeColor=none;fillColor=none;align=center;verticalAlign=middle;whiteSpace=wrap;rounded=0;rotation=0;" parent="1" vertex="1">
          <mxGeometry x="110" y="710" width="60" height="30" as="geometry" />
        </mxCell>
        <mxCell id="UoYVCRtw9k-o6EkpWfz--130" value="R" style="text;html=1;strokeColor=none;fillColor=none;align=center;verticalAlign=middle;whiteSpace=wrap;rounded=0;rotation=0;" parent="1" vertex="1">
          <mxGeometry x="680" y="710" width="60" height="30" as="geometry" />
        </mxCell>
        <mxCell id="UoYVCRtw9k-o6EkpWfz--131" value="L" style="text;html=1;strokeColor=none;fillColor=none;align=center;verticalAlign=middle;whiteSpace=wrap;rounded=0;rotation=0;" parent="1" vertex="1">
          <mxGeometry x="104.01" y="1250.83" width="60" height="30" as="geometry" />
        </mxCell>
        <mxCell id="UoYVCRtw9k-o6EkpWfz--132" value="R" style="text;html=1;strokeColor=none;fillColor=none;align=center;verticalAlign=middle;whiteSpace=wrap;rounded=0;rotation=0;" parent="1" vertex="1">
          <mxGeometry x="674.01" y="1250.83" width="60" height="30" as="geometry" />
        </mxCell>
        <mxCell id="UoYVCRtw9k-o6EkpWfz--133" value="Right side (glass box with pass through box)" style="text;html=1;strokeColor=none;fillColor=none;align=center;verticalAlign=middle;whiteSpace=wrap;rounded=0;" parent="1" vertex="1">
          <mxGeometry x="2148.78" y="880" width="110" height="30" as="geometry" />
        </mxCell>
        <mxCell id="UoYVCRtw9k-o6EkpWfz--134" value="" style="rounded=0;whiteSpace=wrap;html=1;fillColor=none;" parent="1" vertex="1">
          <mxGeometry x="2038.78" y="677.5" width="130" height="130" as="geometry" />
        </mxCell>
        <mxCell id="UoYVCRtw9k-o6EkpWfz--137" value="" style="endArrow=none;html=1;rounded=0;" parent="1" edge="1">
          <mxGeometry width="50" height="50" relative="1" as="geometry">
            <mxPoint x="2168.7799999999997" y="657.55" as="sourcePoint" />
            <mxPoint x="2039.01" y="657.5" as="targetPoint" />
          </mxGeometry>
        </mxCell>
        <mxCell id="UoYVCRtw9k-o6EkpWfz--141" value="25" style="edgeLabel;html=1;align=center;verticalAlign=middle;resizable=0;points=[];" parent="UoYVCRtw9k-o6EkpWfz--137" vertex="1" connectable="0">
          <mxGeometry x="-0.0748" y="5" relative="1" as="geometry">
            <mxPoint as="offset" />
          </mxGeometry>
        </mxCell>
        <mxCell id="UoYVCRtw9k-o6EkpWfz--142" value="" style="endArrow=none;html=1;rounded=0;entryX=0.083;entryY=0.957;entryDx=0;entryDy=0;entryPerimeter=0;" parent="1" edge="1">
          <mxGeometry width="50" height="50" relative="1" as="geometry">
            <mxPoint x="2188.7799999999997" y="677.5" as="sourcePoint" />
            <mxPoint x="2188.7799999999997" y="807.6099999999999" as="targetPoint" />
          </mxGeometry>
        </mxCell>
        <mxCell id="UoYVCRtw9k-o6EkpWfz--143" value="25" style="edgeLabel;html=1;align=center;verticalAlign=middle;resizable=0;points=[];rotation=-90;" parent="UoYVCRtw9k-o6EkpWfz--142" vertex="1" connectable="0">
          <mxGeometry x="-0.0748" y="5" relative="1" as="geometry">
            <mxPoint y="5" as="offset" />
          </mxGeometry>
        </mxCell>
        <mxCell id="UoYVCRtw9k-o6EkpWfz--144" value="" style="rounded=0;whiteSpace=wrap;html=1;fillColor=none;" parent="1" vertex="1">
          <mxGeometry x="2038.22" y="727.5" width="40" height="10" as="geometry" />
        </mxCell>
        <mxCell id="UoYVCRtw9k-o6EkpWfz--145" value="" style="rounded=0;whiteSpace=wrap;html=1;fillColor=none;" parent="1" vertex="1">
          <mxGeometry x="2148.7799999999997" y="707.5" width="30" height="10" as="geometry" />
        </mxCell>
        <mxCell id="UoYVCRtw9k-o6EkpWfz--146" value="" style="rounded=0;whiteSpace=wrap;html=1;fillColor=none;" parent="1" vertex="1">
          <mxGeometry x="2148.7799999999997" y="767.5" width="30" height="10" as="geometry" />
        </mxCell>
        <mxCell id="UoYVCRtw9k-o6EkpWfz--147" value="&lt;font style=&quot;font-size: 6px;&quot;&gt;Door handle&lt;/font&gt;" style="text;html=1;strokeColor=none;fillColor=none;align=center;verticalAlign=middle;whiteSpace=wrap;rounded=0;" parent="1" vertex="1">
          <mxGeometry x="2028.22" y="727.5" width="60" height="30" as="geometry" />
        </mxCell>
        <mxCell id="UoYVCRtw9k-o6EkpWfz--148" value="&lt;font style=&quot;font-size: 6px;&quot;&gt;hinge&lt;/font&gt;" style="text;html=1;strokeColor=none;fillColor=none;align=center;verticalAlign=middle;whiteSpace=wrap;rounded=0;" parent="1" vertex="1">
          <mxGeometry x="2118.7799999999997" y="707.5" width="60" height="30" as="geometry" />
        </mxCell>
        <mxCell id="UoYVCRtw9k-o6EkpWfz--149" value="&lt;font style=&quot;font-size: 6px;&quot;&gt;hinge&lt;/font&gt;" style="text;html=1;strokeColor=none;fillColor=none;align=center;verticalAlign=middle;whiteSpace=wrap;rounded=0;" parent="1" vertex="1">
          <mxGeometry x="2118.7799999999997" y="767.5" width="60" height="30" as="geometry" />
        </mxCell>
        <mxCell id="UoYVCRtw9k-o6EkpWfz--150" value="" style="endArrow=none;html=1;rounded=0;" parent="1" edge="1">
          <mxGeometry width="50" height="50" relative="1" as="geometry">
            <mxPoint x="2259.29" y="837.5" as="sourcePoint" />
            <mxPoint x="2259.29" y="807.5" as="targetPoint" />
          </mxGeometry>
        </mxCell>
        <mxCell id="UoYVCRtw9k-o6EkpWfz--151" value="5" style="edgeLabel;html=1;align=center;verticalAlign=middle;resizable=0;points=[];rotation=90;" parent="UoYVCRtw9k-o6EkpWfz--150" vertex="1" connectable="0">
          <mxGeometry x="-0.1231" y="2" relative="1" as="geometry">
            <mxPoint as="offset" />
          </mxGeometry>
        </mxCell>
        <mxCell id="UoYVCRtw9k-o6EkpWfz--152" value="" style="rounded=0;whiteSpace=wrap;html=1;fillColor=none;" parent="1" vertex="1">
          <mxGeometry x="1989.49" y="1000" width="130" height="130" as="geometry" />
        </mxCell>
        <mxCell id="UoYVCRtw9k-o6EkpWfz--153" value="" style="endArrow=none;html=1;rounded=0;" parent="1" edge="1">
          <mxGeometry width="50" height="50" relative="1" as="geometry">
            <mxPoint x="2119.49" y="980.05" as="sourcePoint" />
            <mxPoint x="1989.72" y="980" as="targetPoint" />
          </mxGeometry>
        </mxCell>
        <mxCell id="UoYVCRtw9k-o6EkpWfz--154" value="25" style="edgeLabel;html=1;align=center;verticalAlign=middle;resizable=0;points=[];" parent="UoYVCRtw9k-o6EkpWfz--153" vertex="1" connectable="0">
          <mxGeometry x="-0.0748" y="5" relative="1" as="geometry">
            <mxPoint x="-5" y="-5" as="offset" />
          </mxGeometry>
        </mxCell>
        <mxCell id="UoYVCRtw9k-o6EkpWfz--155" value="" style="endArrow=none;html=1;rounded=0;entryX=0.083;entryY=0.957;entryDx=0;entryDy=0;entryPerimeter=0;" parent="1" edge="1">
          <mxGeometry width="50" height="50" relative="1" as="geometry">
            <mxPoint x="2139.49" y="1000" as="sourcePoint" />
            <mxPoint x="2139.49" y="1130.11" as="targetPoint" />
          </mxGeometry>
        </mxCell>
        <mxCell id="UoYVCRtw9k-o6EkpWfz--156" value="25" style="edgeLabel;html=1;align=center;verticalAlign=middle;resizable=0;points=[];rotation=90;" parent="UoYVCRtw9k-o6EkpWfz--155" vertex="1" connectable="0">
          <mxGeometry x="-0.0748" y="5" relative="1" as="geometry">
            <mxPoint y="5" as="offset" />
          </mxGeometry>
        </mxCell>
        <mxCell id="UoYVCRtw9k-o6EkpWfz--157" value="" style="rounded=0;whiteSpace=wrap;html=1;fillColor=none;" parent="1" vertex="1">
          <mxGeometry x="1988.93" y="1050" width="40" height="10" as="geometry" />
        </mxCell>
        <mxCell id="UoYVCRtw9k-o6EkpWfz--158" value="" style="rounded=0;whiteSpace=wrap;html=1;fillColor=none;" parent="1" vertex="1">
          <mxGeometry x="2099.49" y="1030" width="30" height="10" as="geometry" />
        </mxCell>
        <mxCell id="UoYVCRtw9k-o6EkpWfz--159" value="" style="rounded=0;whiteSpace=wrap;html=1;fillColor=none;" parent="1" vertex="1">
          <mxGeometry x="2099.49" y="1090" width="30" height="10" as="geometry" />
        </mxCell>
        <mxCell id="UoYVCRtw9k-o6EkpWfz--160" value="&lt;font style=&quot;font-size: 6px;&quot;&gt;Door handle&lt;/font&gt;" style="text;html=1;strokeColor=none;fillColor=none;align=center;verticalAlign=middle;whiteSpace=wrap;rounded=0;" parent="1" vertex="1">
          <mxGeometry x="1978.93" y="1050" width="60" height="30" as="geometry" />
        </mxCell>
        <mxCell id="UoYVCRtw9k-o6EkpWfz--161" value="&lt;font style=&quot;font-size: 6px;&quot;&gt;hinge&lt;/font&gt;" style="text;html=1;strokeColor=none;fillColor=none;align=center;verticalAlign=middle;whiteSpace=wrap;rounded=0;" parent="1" vertex="1">
          <mxGeometry x="2069.49" y="1030" width="60" height="30" as="geometry" />
        </mxCell>
        <mxCell id="UoYVCRtw9k-o6EkpWfz--162" value="&lt;font style=&quot;font-size: 6px;&quot;&gt;hinge&lt;/font&gt;" style="text;html=1;strokeColor=none;fillColor=none;align=center;verticalAlign=middle;whiteSpace=wrap;rounded=0;" parent="1" vertex="1">
          <mxGeometry x="2069.49" y="1090" width="60" height="30" as="geometry" />
        </mxCell>
        <mxCell id="UoYVCRtw9k-o6EkpWfz--163" value="" style="rounded=0;whiteSpace=wrap;html=1;fillColor=none;" parent="1" vertex="1">
          <mxGeometry x="1660" y="1000" width="130" height="130" as="geometry" />
        </mxCell>
        <mxCell id="UoYVCRtw9k-o6EkpWfz--164" value="" style="endArrow=none;html=1;rounded=0;" parent="1" edge="1">
          <mxGeometry width="50" height="50" relative="1" as="geometry">
            <mxPoint x="1790.56" y="980" as="sourcePoint" />
            <mxPoint x="1660.79" y="979.95" as="targetPoint" />
          </mxGeometry>
        </mxCell>
        <mxCell id="UoYVCRtw9k-o6EkpWfz--165" value="25" style="edgeLabel;html=1;align=center;verticalAlign=middle;resizable=0;points=[];" parent="UoYVCRtw9k-o6EkpWfz--164" vertex="1" connectable="0">
          <mxGeometry x="-0.0748" y="5" relative="1" as="geometry">
            <mxPoint x="-6" y="-5" as="offset" />
          </mxGeometry>
        </mxCell>
        <mxCell id="UoYVCRtw9k-o6EkpWfz--166" value="" style="endArrow=none;html=1;rounded=0;entryX=0.083;entryY=0.957;entryDx=0;entryDy=0;entryPerimeter=0;" parent="1" edge="1">
          <mxGeometry width="50" height="50" relative="1" as="geometry">
            <mxPoint x="1810.56" y="999.95" as="sourcePoint" />
            <mxPoint x="1810.56" y="1130.06" as="targetPoint" />
          </mxGeometry>
        </mxCell>
        <mxCell id="UoYVCRtw9k-o6EkpWfz--167" value="25" style="edgeLabel;html=1;align=center;verticalAlign=middle;resizable=0;points=[];rotation=90;" parent="UoYVCRtw9k-o6EkpWfz--166" vertex="1" connectable="0">
          <mxGeometry x="-0.0748" y="5" relative="1" as="geometry">
            <mxPoint y="5" as="offset" />
          </mxGeometry>
        </mxCell>
        <mxCell id="UoYVCRtw9k-o6EkpWfz--177" value="S" style="text;html=1;strokeColor=none;fillColor=none;align=center;verticalAlign=middle;whiteSpace=wrap;rounded=0;" parent="1" vertex="1">
          <mxGeometry x="1695" y="950" width="60" height="30" as="geometry" />
        </mxCell>
        <mxCell id="UoYVCRtw9k-o6EkpWfz--178" value="I" style="text;html=1;strokeColor=none;fillColor=none;align=center;verticalAlign=middle;whiteSpace=wrap;rounded=0;" parent="1" vertex="1">
          <mxGeometry x="1695" y="1280" width="60" height="30" as="geometry" />
        </mxCell>
        <mxCell id="UoYVCRtw9k-o6EkpWfz--179" value="S" style="text;html=1;strokeColor=none;fillColor=none;align=center;verticalAlign=middle;whiteSpace=wrap;rounded=0;" parent="1" vertex="1">
          <mxGeometry x="2024.49" y="950" width="60" height="30" as="geometry" />
        </mxCell>
        <mxCell id="UoYVCRtw9k-o6EkpWfz--182" value="" style="rounded=0;whiteSpace=wrap;html=1;fillColor=none;" parent="1" vertex="1">
          <mxGeometry x="1790" y="1050" width="10" height="10" as="geometry" />
        </mxCell>
        <mxCell id="UoYVCRtw9k-o6EkpWfz--183" value="" style="rounded=0;whiteSpace=wrap;html=1;fillColor=none;" parent="1" vertex="1">
          <mxGeometry x="1790" y="1030" width="10" height="10" as="geometry" />
        </mxCell>
        <mxCell id="UoYVCRtw9k-o6EkpWfz--184" value="" style="rounded=0;whiteSpace=wrap;html=1;fillColor=none;" parent="1" vertex="1">
          <mxGeometry x="1790" y="1080" width="10" height="10" as="geometry" />
        </mxCell>
        <mxCell id="UoYVCRtw9k-o6EkpWfz--189" value="" style="endArrow=none;html=1;rounded=0;entryX=0.391;entryY=1.003;entryDx=0;entryDy=0;entryPerimeter=0;" parent="1" edge="1">
          <mxGeometry width="50" height="50" relative="1" as="geometry">
            <mxPoint x="1700" y="1240" as="sourcePoint" />
            <mxPoint x="1700" y="1130" as="targetPoint" />
          </mxGeometry>
        </mxCell>
        <mxCell id="UoYVCRtw9k-o6EkpWfz--190" value="" style="endArrow=none;html=1;rounded=0;entryX=0.617;entryY=1.001;entryDx=0;entryDy=0;entryPerimeter=0;" parent="1" edge="1">
          <mxGeometry width="50" height="50" relative="1" as="geometry">
            <mxPoint x="1750" y="1240.5" as="sourcePoint" />
            <mxPoint x="1750" y="1130.5" as="targetPoint" />
          </mxGeometry>
        </mxCell>
        <mxCell id="UoYVCRtw9k-o6EkpWfz--191" value="" style="endArrow=none;html=1;rounded=0;" parent="1" edge="1">
          <mxGeometry width="50" height="50" relative="1" as="geometry">
            <mxPoint x="1700" y="1240" as="sourcePoint" />
            <mxPoint x="1750" y="1240" as="targetPoint" />
          </mxGeometry>
        </mxCell>
        <mxCell id="UoYVCRtw9k-o6EkpWfz--192" value="" style="endArrow=none;html=1;rounded=0;entryX=0.391;entryY=1.003;entryDx=0;entryDy=0;entryPerimeter=0;" parent="1" edge="1">
          <mxGeometry width="50" height="50" relative="1" as="geometry">
            <mxPoint x="2029.3500000000001" y="1240" as="sourcePoint" />
            <mxPoint x="2029.3500000000001" y="1130" as="targetPoint" />
          </mxGeometry>
        </mxCell>
        <mxCell id="UoYVCRtw9k-o6EkpWfz--193" value="" style="endArrow=none;html=1;rounded=0;entryX=0.617;entryY=1.001;entryDx=0;entryDy=0;entryPerimeter=0;" parent="1" edge="1">
          <mxGeometry width="50" height="50" relative="1" as="geometry">
            <mxPoint x="2079.3500000000004" y="1240.5" as="sourcePoint" />
            <mxPoint x="2079.3500000000004" y="1130.5" as="targetPoint" />
          </mxGeometry>
        </mxCell>
        <mxCell id="UoYVCRtw9k-o6EkpWfz--194" value="" style="endArrow=none;html=1;rounded=0;" parent="1" edge="1">
          <mxGeometry width="50" height="50" relative="1" as="geometry">
            <mxPoint x="2029.3500000000001" y="1240" as="sourcePoint" />
            <mxPoint x="2079.3500000000004" y="1240" as="targetPoint" />
          </mxGeometry>
        </mxCell>
        <mxCell id="UoYVCRtw9k-o6EkpWfz--195" value="&lt;font style=&quot;font-size: 6px;&quot;&gt;Glove Port&lt;/font&gt;" style="text;html=1;strokeColor=none;fillColor=none;align=center;verticalAlign=middle;whiteSpace=wrap;rounded=0;" parent="1" vertex="1">
          <mxGeometry x="297.95" y="755" width="60" height="30" as="geometry" />
        </mxCell>
        <mxCell id="UoYVCRtw9k-o6EkpWfz--196" value="&lt;font style=&quot;font-size: 6px;&quot;&gt;Glove Port&lt;/font&gt;" style="text;html=1;strokeColor=none;fillColor=none;align=center;verticalAlign=middle;whiteSpace=wrap;rounded=0;" parent="1" vertex="1">
          <mxGeometry x="487.95" y="755" width="60" height="30" as="geometry" />
        </mxCell>
        <mxCell id="UoYVCRtw9k-o6EkpWfz--197" value="&lt;h1&gt;Class III Biosafety Cabinet&lt;/h1&gt;&lt;p&gt;Scale: no scale (refer to measurements)&lt;/p&gt;&lt;p&gt;Design: No. 003&lt;/p&gt;&lt;p&gt;Lab name: Synthetic Intelligence Labs&lt;/p&gt;&lt;p&gt;Project: BioSilicon Wet Lab&lt;/p&gt;" style="text;html=1;strokeColor=none;fillColor=none;spacing=5;spacingTop=-20;whiteSpace=wrap;overflow=hidden;rounded=0;" parent="1" vertex="1">
          <mxGeometry x="2038.22" y="1412.41" width="260" height="180" as="geometry" />
        </mxCell>
        <mxCell id="UoYVCRtw9k-o6EkpWfz--198" value="" style="endArrow=none;html=1;rounded=0;" parent="1" edge="1">
          <mxGeometry width="50" height="50" relative="1" as="geometry">
            <mxPoint x="1640" y="1130" as="sourcePoint" />
            <mxPoint x="1640" y="1000" as="targetPoint" />
          </mxGeometry>
        </mxCell>
        <mxCell id="UoYVCRtw9k-o6EkpWfz--199" value="25" style="edgeLabel;html=1;align=center;verticalAlign=middle;resizable=0;points=[];rotation=-90;" parent="UoYVCRtw9k-o6EkpWfz--198" vertex="1" connectable="0">
          <mxGeometry x="-0.0071" y="2" relative="1" as="geometry">
            <mxPoint as="offset" />
          </mxGeometry>
        </mxCell>
        <mxCell id="UoYVCRtw9k-o6EkpWfz--200" value="" style="endArrow=none;html=1;rounded=0;" parent="1" edge="1">
          <mxGeometry width="50" height="50" relative="1" as="geometry">
            <mxPoint x="1970" y="1130" as="sourcePoint" />
            <mxPoint x="1969.92" y="1000" as="targetPoint" />
          </mxGeometry>
        </mxCell>
        <mxCell id="UoYVCRtw9k-o6EkpWfz--201" value="25" style="edgeLabel;html=1;align=center;verticalAlign=middle;resizable=0;points=[];rotation=-90;" parent="UoYVCRtw9k-o6EkpWfz--200" vertex="1" connectable="0">
          <mxGeometry x="-0.0071" y="2" relative="1" as="geometry">
            <mxPoint x="2" as="offset" />
          </mxGeometry>
        </mxCell>
        <mxCell id="UoYVCRtw9k-o6EkpWfz--204" value="" style="endArrow=none;html=1;rounded=0;" parent="1" edge="1">
          <mxGeometry width="50" height="50" relative="1" as="geometry">
            <mxPoint x="1789.77" y="1260.05" as="sourcePoint" />
            <mxPoint x="1660" y="1260" as="targetPoint" />
          </mxGeometry>
        </mxCell>
        <mxCell id="UoYVCRtw9k-o6EkpWfz--205" value="25" style="edgeLabel;html=1;align=center;verticalAlign=middle;resizable=0;points=[];rotation=-180;" parent="UoYVCRtw9k-o6EkpWfz--204" vertex="1" connectable="0">
          <mxGeometry x="-0.0748" y="5" relative="1" as="geometry">
            <mxPoint x="-5" y="-5" as="offset" />
          </mxGeometry>
        </mxCell>
        <mxCell id="UoYVCRtw9k-o6EkpWfz--208" value="" style="endArrow=none;html=1;rounded=0;" parent="1" edge="1">
          <mxGeometry width="50" height="50" relative="1" as="geometry">
            <mxPoint x="1750" y="1280" as="sourcePoint" />
            <mxPoint x="1700" y="1280" as="targetPoint" />
          </mxGeometry>
        </mxCell>
        <mxCell id="UoYVCRtw9k-o6EkpWfz--210" value="5" style="edgeLabel;html=1;align=center;verticalAlign=middle;resizable=0;points=[];rotation=-180;" parent="UoYVCRtw9k-o6EkpWfz--208" vertex="1" connectable="0">
          <mxGeometry x="0.04" y="-1" relative="1" as="geometry">
            <mxPoint x="1" as="offset" />
          </mxGeometry>
        </mxCell>
        <mxCell id="UoYVCRtw9k-o6EkpWfz--211" value="I" style="text;html=1;strokeColor=none;fillColor=none;align=center;verticalAlign=middle;whiteSpace=wrap;rounded=0;" parent="1" vertex="1">
          <mxGeometry x="2024.72" y="1280" width="60" height="30" as="geometry" />
        </mxCell>
        <mxCell id="UoYVCRtw9k-o6EkpWfz--212" value="" style="endArrow=none;html=1;rounded=0;" parent="1" edge="1">
          <mxGeometry width="50" height="50" relative="1" as="geometry">
            <mxPoint x="2119.49" y="1260.05" as="sourcePoint" />
            <mxPoint x="1989.72" y="1260" as="targetPoint" />
          </mxGeometry>
        </mxCell>
        <mxCell id="UoYVCRtw9k-o6EkpWfz--213" value="25" style="edgeLabel;html=1;align=center;verticalAlign=middle;resizable=0;points=[];rotation=-180;" parent="UoYVCRtw9k-o6EkpWfz--212" vertex="1" connectable="0">
          <mxGeometry x="-0.0748" y="5" relative="1" as="geometry">
            <mxPoint x="-5" y="-5" as="offset" />
          </mxGeometry>
        </mxCell>
        <mxCell id="UoYVCRtw9k-o6EkpWfz--214" value="" style="endArrow=none;html=1;rounded=0;" parent="1" edge="1">
          <mxGeometry width="50" height="50" relative="1" as="geometry">
            <mxPoint x="2079.7200000000003" y="1280" as="sourcePoint" />
            <mxPoint x="2029.72" y="1280" as="targetPoint" />
          </mxGeometry>
        </mxCell>
        <mxCell id="UoYVCRtw9k-o6EkpWfz--215" value="5" style="edgeLabel;html=1;align=center;verticalAlign=middle;resizable=0;points=[];rotation=-180;" parent="UoYVCRtw9k-o6EkpWfz--214" vertex="1" connectable="0">
          <mxGeometry x="0.04" y="-1" relative="1" as="geometry">
            <mxPoint x="1" as="offset" />
          </mxGeometry>
        </mxCell>
        <mxCell id="UoYVCRtw9k-o6EkpWfz--216" value="" style="endArrow=none;html=1;rounded=0;" parent="1" edge="1">
          <mxGeometry width="50" height="50" relative="1" as="geometry">
            <mxPoint x="1908.62" y="857.81" as="sourcePoint" />
            <mxPoint x="1668.62" y="857.81" as="targetPoint" />
          </mxGeometry>
        </mxCell>
        <mxCell id="UoYVCRtw9k-o6EkpWfz--218" value="40" style="edgeLabel;html=1;align=center;verticalAlign=middle;resizable=0;points=[];rotation=-180;" parent="UoYVCRtw9k-o6EkpWfz--216" vertex="1" connectable="0">
          <mxGeometry x="-0.0055" y="2" relative="1" as="geometry">
            <mxPoint as="offset" />
          </mxGeometry>
        </mxCell>
        <mxCell id="UoYVCRtw9k-o6EkpWfz--219" value="" style="endArrow=none;html=1;rounded=0;" parent="1" edge="1">
          <mxGeometry width="50" height="50" relative="1" as="geometry">
            <mxPoint x="2239.29" y="857.81" as="sourcePoint" />
            <mxPoint x="1999.29" y="857.81" as="targetPoint" />
          </mxGeometry>
        </mxCell>
        <mxCell id="UoYVCRtw9k-o6EkpWfz--220" value="40" style="edgeLabel;html=1;align=center;verticalAlign=middle;resizable=0;points=[];rotation=-180;" parent="UoYVCRtw9k-o6EkpWfz--219" vertex="1" connectable="0">
          <mxGeometry x="-0.0055" y="2" relative="1" as="geometry">
            <mxPoint as="offset" />
          </mxGeometry>
        </mxCell>
        <mxCell id="UoYVCRtw9k-o6EkpWfz--222" value="R" style="text;html=1;strokeColor=none;fillColor=none;align=center;verticalAlign=middle;whiteSpace=wrap;rounded=0;rotation=0;" parent="1" vertex="1">
          <mxGeometry x="2210" y="205" width="60" height="30" as="geometry" />
        </mxCell>
        <mxCell id="UoYVCRtw9k-o6EkpWfz--223" value="L" style="text;html=1;strokeColor=none;fillColor=none;align=center;verticalAlign=middle;whiteSpace=wrap;rounded=0;rotation=0;" parent="1" vertex="1">
          <mxGeometry x="880.6699999999998" y="1246.9099999999999" width="60" height="30" as="geometry" />
        </mxCell>
        <mxCell id="UoYVCRtw9k-o6EkpWfz--224" value="R" style="text;html=1;strokeColor=none;fillColor=none;align=center;verticalAlign=middle;whiteSpace=wrap;rounded=0;rotation=0;" parent="1" vertex="1">
          <mxGeometry x="1450.67" y="1246.9099999999999" width="60" height="30" as="geometry" />
        </mxCell>
        <mxCell id="UoYVCRtw9k-o6EkpWfz--225" value="L" style="text;html=1;strokeColor=none;fillColor=none;align=center;verticalAlign=middle;whiteSpace=wrap;rounded=0;rotation=0;" parent="1" vertex="1">
          <mxGeometry x="135.28000000000006" y="205" width="60" height="30" as="geometry" />
        </mxCell>
        <mxCell id="UoYVCRtw9k-o6EkpWfz--226" value="R" style="text;html=1;strokeColor=none;fillColor=none;align=center;verticalAlign=middle;whiteSpace=wrap;rounded=0;rotation=0;" parent="1" vertex="1">
          <mxGeometry x="654.7200000000001" y="205" width="60" height="30" as="geometry" />
        </mxCell>
        <mxCell id="UoYVCRtw9k-o6EkpWfz--227" value="S" style="text;html=1;strokeColor=none;fillColor=none;align=center;verticalAlign=middle;whiteSpace=wrap;rounded=0;" parent="1" vertex="1">
          <mxGeometry x="2088.2200000000003" y="552.5" width="60" height="30" as="geometry" />
        </mxCell>
        <mxCell id="UoYVCRtw9k-o6EkpWfz--228" value="I" style="text;html=1;strokeColor=none;fillColor=none;align=center;verticalAlign=middle;whiteSpace=wrap;rounded=0;" parent="1" vertex="1">
          <mxGeometry x="2088.2200000000003" y="859.5" width="60" height="30" as="geometry" />
        </mxCell>
        <mxCell id="UoYVCRtw9k-o6EkpWfz--231" value="S" style="text;html=1;strokeColor=none;fillColor=none;align=center;verticalAlign=middle;whiteSpace=wrap;rounded=0;" parent="1" vertex="1">
          <mxGeometry x="1759.29" y="554" width="60" height="30" as="geometry" />
        </mxCell>
        <mxCell id="UoYVCRtw9k-o6EkpWfz--232" value="I" style="text;html=1;strokeColor=none;fillColor=none;align=center;verticalAlign=middle;whiteSpace=wrap;rounded=0;" parent="1" vertex="1">
          <mxGeometry x="1759.29" y="861" width="60" height="30" as="geometry" />
        </mxCell>
        <mxCell id="UoYVCRtw9k-o6EkpWfz--233" value="Right side (pass through box)" style="text;html=1;strokeColor=none;fillColor=none;align=center;verticalAlign=middle;whiteSpace=wrap;rounded=0;" parent="1" vertex="1">
          <mxGeometry x="2070.0000000000005" y="1291.91" width="110" height="30" as="geometry" />
        </mxCell>
        <mxCell id="UoYVCRtw9k-o6EkpWfz--234" value="Front (pass through box)" style="text;html=1;strokeColor=none;fillColor=none;align=center;verticalAlign=middle;whiteSpace=wrap;rounded=0;" parent="1" vertex="1">
          <mxGeometry x="1755.0000000000005" y="1291.91" width="110" height="30" as="geometry" />
        </mxCell>
        <mxCell id="UoYVCRtw9k-o6EkpWfz--235" value="" style="endArrow=none;html=1;rounded=0;" parent="1" edge="1">
          <mxGeometry width="50" height="50" relative="1" as="geometry">
            <mxPoint x="1819.01" y="1130" as="sourcePoint" />
            <mxPoint x="1819.01" y="1240" as="targetPoint" />
          </mxGeometry>
        </mxCell>
        <mxCell id="UoYVCRtw9k-o6EkpWfz--237" value="20" style="edgeLabel;html=1;align=center;verticalAlign=middle;resizable=0;points=[];rotation=90;" parent="UoYVCRtw9k-o6EkpWfz--235" vertex="1" connectable="0">
          <mxGeometry x="-0.0545" y="3" relative="1" as="geometry">
            <mxPoint as="offset" />
          </mxGeometry>
        </mxCell>
        <mxCell id="UoYVCRtw9k-o6EkpWfz--238" value="" style="endArrow=none;html=1;rounded=0;" parent="1" edge="1">
          <mxGeometry width="50" height="50" relative="1" as="geometry">
            <mxPoint x="2148.7799999999997" y="1130" as="sourcePoint" />
            <mxPoint x="2148.7799999999997" y="1240" as="targetPoint" />
          </mxGeometry>
        </mxCell>
        <mxCell id="UoYVCRtw9k-o6EkpWfz--239" value="20" style="edgeLabel;html=1;align=center;verticalAlign=middle;resizable=0;points=[];rotation=90;" parent="UoYVCRtw9k-o6EkpWfz--238" vertex="1" connectable="0">
          <mxGeometry x="-0.0545" y="3" relative="1" as="geometry">
            <mxPoint as="offset" />
          </mxGeometry>
        </mxCell>
        <mxCell id="UoYVCRtw9k-o6EkpWfz--254" value="" style="rounded=0;whiteSpace=wrap;html=1;fillColor=none;" parent="1" vertex="1">
          <mxGeometry x="627.9500000000003" y="730" width="10" height="10" as="geometry" />
        </mxCell>
        <mxCell id="UoYVCRtw9k-o6EkpWfz--255" value="" style="rounded=0;whiteSpace=wrap;html=1;fillColor=none;" parent="1" vertex="1">
          <mxGeometry x="627.9500000000003" y="710" width="10" height="10" as="geometry" />
        </mxCell>
        <mxCell id="UoYVCRtw9k-o6EkpWfz--256" value="" style="rounded=0;whiteSpace=wrap;html=1;fillColor=none;" parent="1" vertex="1">
          <mxGeometry x="627.9500000000003" y="770" width="10" height="10" as="geometry" />
        </mxCell>
        <mxCell id="UoYVCRtw9k-o6EkpWfz--257" value="&lt;font style=&quot;font-size: 6px;&quot;&gt;Latch&lt;/font&gt;" style="text;html=1;strokeColor=none;fillColor=none;align=center;verticalAlign=middle;whiteSpace=wrap;rounded=0;" parent="1" vertex="1">
          <mxGeometry x="590" y="687.5" width="60" height="30" as="geometry" />
        </mxCell>
        <mxCell id="UoYVCRtw9k-o6EkpWfz--258" value="&lt;font style=&quot;font-size: 6px;&quot;&gt;Latch&lt;/font&gt;" style="text;html=1;strokeColor=none;fillColor=none;align=center;verticalAlign=middle;whiteSpace=wrap;rounded=0;" parent="1" vertex="1">
          <mxGeometry x="590" y="767.5" width="60" height="30" as="geometry" />
        </mxCell>
        <mxCell id="UoYVCRtw9k-o6EkpWfz--259" value="&lt;font style=&quot;font-size: 6px;&quot;&gt;Door Handle&lt;/font&gt;" style="text;html=1;strokeColor=none;fillColor=none;align=center;verticalAlign=middle;whiteSpace=wrap;rounded=0;" parent="1" vertex="1">
          <mxGeometry x="590" y="727.5" width="60" height="30" as="geometry" />
        </mxCell>
      </root>
    </mxGraphModel>
  </diagram>
</mxfile>
